<svg xmlns="http://www.w3.org/2000/svg" viewBox="0 0 432.07 144.33"><defs><style>.cls-1{fill:#00855a;}.cls-2,.cls-3,.cls-4{fill:#fff;}.cls-3{font-size:47.66px;font-family:Lato-Bold, Lato;font-weight:700;}.cls-4{font-size:25.48px;font-family:Lato-Semibold, Lato;font-weight:600;}.cls-5{letter-spacing:-0.07em;}.cls-6{letter-spacing:-0.01em;}</style></defs><g id="Camada_2" data-name="Camada 2"><g id="OBJECTS"><rect class="cls-1" width="432.07" height="144.33" rx="9.7"/><path class="cls-2" d="M87.35,38.41c7-7,6.82-18.51,6.82-18.51s-11.51-.17-18.5,6.82-6.82,18.5-6.82,18.5S80.36,45.4,87.35,38.41Z"/><path class="cls-2" d="M99.92,76.7a27.13,27.13,0,0,1,12.39-22.79,21.8,21.8,0,0,0-12.24-9.35C94.65,43.05,89,44,83.6,46.79a23.67,23.67,0,0,1-22.1,0C56.15,44,50.45,43.05,45,44.56,30.07,48.74,22.87,69.84,29,91.69s23.17,36.19,38.14,32a18.24,18.24,0,0,0,2.51-.89,7.37,7.37,0,0,1,5.86,0,18.24,18.24,0,0,0,2.51.89c13,3.62,27.53-6.66,35.15-23.7A27.12,27.12,0,0,1,99.92,76.7Z"/><text class="cls-3" transform="translate(151.08 103.26) scale(1.01 1)">Apple Store</text><text class="cls-4" transform="translate(156.08 59.19) scale(1.01 1)"><tspan class="cls-5">F</tspan><tspan x="12.65" y="0">aça seu d</tspan><tspan class="cls-6" x="116.48" y="0">o</tspan><tspan x="130.83" y="0">wnload na</tspan></text></g></g></svg>