<?xml version="1.0" encoding="utf-8"?>
<!-- Generator: Adobe Illustrator 26.0.0, SVG Export Plug-In . SVG Version: 6.00 Build 0)  -->
<svg version="1.1" id="Camada_1" xmlns="http://www.w3.org/2000/svg" xmlns:xlink="http://www.w3.org/1999/xlink" x="0px" y="0px"
	 viewBox="0 0 432.1 144.3" style="enable-background:new 0 0 432.1 144.3;" xml:space="preserve">
<style type="text/css">
	.st0{fill:#00855A;}
	.st1{enable-background:new    ;}
	.st2{fill:#FFFFFF;}
</style>
<g>
	<path class="st0" d="M412.1,144.3H20c-11,0-20-9-20-20V20C0,9,9,0,20,0h392.1c11,0,20,9,20,20v104.3
		C432.1,135.4,423.1,144.3,412.1,144.3z"/>
</g>
<g class="st1">
	<path class="st2" d="M170,93.2c1.4,0,2.7-0.1,3.8-0.4s2.1-0.6,3.1-1.1v-6.2h-4.3c-0.4,0-0.7-0.1-1-0.3c-0.2-0.2-0.4-0.5-0.4-0.8
		v-3.6h11.4v13.8c-0.9,0.6-1.8,1.2-2.7,1.6c-0.9,0.5-2,0.8-3,1.1c-1.1,0.3-2.2,0.5-3.4,0.7s-2.5,0.2-3.9,0.2c-2.5,0-4.8-0.4-6.9-1.3
		c-2.1-0.9-3.9-2.1-5.5-3.6c-1.5-1.5-2.7-3.4-3.6-5.5c-0.9-2.1-1.3-4.5-1.3-7c0-2.6,0.4-4.9,1.3-7c0.8-2.1,2-4,3.6-5.5
		c1.5-1.5,3.4-2.7,5.6-3.6s4.7-1.3,7.4-1.3c2.8,0,5.2,0.4,7.3,1.2c2.1,0.8,3.8,1.9,5.2,3.2l-1.9,2.9c-0.4,0.6-0.8,0.9-1.5,0.9
		c-0.4,0-0.8-0.1-1.2-0.4c-0.5-0.3-1-0.6-1.6-0.9c-0.5-0.3-1.1-0.6-1.8-0.8c-0.6-0.2-1.4-0.4-2.2-0.5c-0.8-0.1-1.7-0.2-2.8-0.2
		c-1.7,0-3.2,0.3-4.6,0.8s-2.5,1.4-3.5,2.4c-1,1.1-1.7,2.3-2.2,3.8c-0.5,1.5-0.8,3.1-0.8,4.9c0,2,0.3,3.7,0.8,5.2
		c0.6,1.5,1.3,2.8,2.3,3.9c1,1.1,2.2,1.9,3.6,2.4C166.8,92.9,168.4,93.2,170,93.2z"/>
	<path class="st2" d="M198.7,73.3c1.8,0,3.5,0.3,5,0.9c1.5,0.6,2.7,1.4,3.8,2.5c1,1.1,1.9,2.4,2.4,3.9c0.6,1.5,0.9,3.3,0.9,5.2
		c0,1.9-0.3,3.6-0.9,5.2c-0.6,1.5-1.4,2.9-2.4,3.9s-2.3,1.9-3.8,2.5c-1.5,0.6-3.1,0.9-5,0.9s-3.5-0.3-5-0.9
		c-1.5-0.6-2.8-1.4-3.8-2.5c-1.1-1.1-1.9-2.4-2.5-3.9c-0.6-1.5-0.9-3.3-0.9-5.2c0-1.9,0.3-3.6,0.9-5.2c0.6-1.5,1.4-2.8,2.5-3.9
		c1.1-1.1,2.3-1.9,3.8-2.5C195.2,73.6,196.9,73.3,198.7,73.3z M198.7,93.8c2,0,3.5-0.7,4.5-2c1-1.4,1.5-3.3,1.5-5.9s-0.5-4.6-1.5-6
		c-1-1.4-2.5-2-4.5-2c-2.1,0-3.6,0.7-4.6,2.1c-1,1.4-1.5,3.4-1.5,5.9s0.5,4.6,1.5,5.9C195.1,93.1,196.6,93.8,198.7,93.8z"/>
	<path class="st2" d="M225.7,73.3c1.8,0,3.5,0.3,5,0.9s2.7,1.4,3.8,2.5c1,1.1,1.9,2.4,2.4,3.9s0.9,3.3,0.9,5.2
		c0,1.9-0.3,3.6-0.9,5.2c-0.6,1.5-1.4,2.9-2.4,3.9s-2.3,1.9-3.8,2.5s-3.1,0.9-5,0.9s-3.5-0.3-5-0.9c-1.5-0.6-2.8-1.4-3.8-2.5
		c-1.1-1.1-1.9-2.4-2.5-3.9c-0.6-1.5-0.9-3.3-0.9-5.2c0-1.9,0.3-3.6,0.9-5.2c0.6-1.5,1.4-2.8,2.5-3.9c1.1-1.1,2.3-1.9,3.8-2.5
		C222.3,73.6,223.9,73.3,225.7,73.3z M225.7,93.8c2,0,3.5-0.7,4.5-2c1-1.4,1.5-3.3,1.5-5.9s-0.5-4.6-1.5-6c-1-1.4-2.5-2-4.5-2
		c-2.1,0-3.6,0.7-4.6,2.1c-1,1.4-1.5,3.4-1.5,5.9s0.5,4.6,1.5,5.9C222.2,93.1,223.7,93.8,225.7,93.8z"/>
	<path class="st2" d="M250.8,73.3c1,0,2,0.1,3,0.3c0.9,0.2,1.8,0.5,2.5,0.9h7v2.2c0,0.4-0.1,0.6-0.3,0.8s-0.5,0.3-1,0.4l-2.2,0.4
		c0.2,0.4,0.3,0.8,0.4,1.3c0.1,0.5,0.1,0.9,0.1,1.4c0,1.2-0.2,2.3-0.7,3.2c-0.5,1-1.2,1.8-2,2.5c-0.8,0.7-1.9,1.2-3,1.6
		s-2.4,0.6-3.8,0.6c-0.9,0-1.8-0.1-2.7-0.3c-0.8,0.5-1.1,1-1.1,1.5c0,0.5,0.2,0.9,0.7,1.1c0.5,0.2,1,0.4,1.8,0.5
		c0.7,0.1,1.6,0.1,2.5,0.1c0.9,0,1.9,0,2.9,0.1c1,0.1,1.9,0.2,2.9,0.4c0.9,0.2,1.8,0.5,2.5,0.9c0.7,0.4,1.3,1,1.8,1.7
		c0.5,0.7,0.7,1.7,0.7,2.8c0,1.1-0.3,2.1-0.8,3.1c-0.5,1-1.3,1.9-2.3,2.7c-1,0.8-2.2,1.4-3.7,1.9c-1.5,0.5-3.1,0.7-5,0.7
		c-1.9,0-3.5-0.2-4.8-0.5c-1.4-0.4-2.5-0.8-3.4-1.4c-0.9-0.6-1.6-1.3-2-2c-0.4-0.8-0.7-1.6-0.7-2.4c0-1.1,0.3-2.1,1-2.9
		c0.7-0.8,1.7-1.4,2.9-1.8c-0.6-0.3-1.1-0.8-1.5-1.3c-0.4-0.6-0.5-1.3-0.5-2.1c0-0.4,0.1-0.7,0.2-1.1s0.3-0.8,0.6-1.1s0.6-0.7,1-1.1
		c0.4-0.3,0.9-0.6,1.4-0.9c-1.2-0.7-2.2-1.5-2.9-2.6c-0.7-1.1-1.1-2.4-1.1-3.9c0-1.2,0.2-2.3,0.7-3.2c0.5-1,1.2-1.8,2-2.5
		s1.9-1.2,3.1-1.6C248.1,73.5,249.4,73.3,250.8,73.3z M257.3,98.9c0-0.5-0.1-0.9-0.4-1.2s-0.7-0.5-1.2-0.7c-0.5-0.2-1.1-0.3-1.7-0.4
		c-0.7-0.1-1.4-0.1-2.1-0.1s-1.5,0-2.3,0s-1.5-0.1-2.3-0.3c-0.7,0.4-1.2,0.8-1.6,1.3c-0.4,0.5-0.6,1.1-0.6,1.7
		c0,0.4,0.1,0.8,0.3,1.2c0.2,0.4,0.6,0.7,1,1c0.5,0.3,1.1,0.5,1.8,0.6c0.7,0.1,1.7,0.2,2.7,0.2c1.1,0,2-0.1,2.8-0.3
		c0.8-0.2,1.4-0.4,2-0.7c0.5-0.3,0.9-0.6,1.1-1.1C257.1,99.8,257.3,99.4,257.3,98.9z M250.8,85.2c0.7,0,1.4-0.1,1.9-0.3
		s1-0.5,1.3-0.8c0.4-0.3,0.6-0.8,0.8-1.2c0.2-0.5,0.3-1,0.3-1.6c0-1.2-0.4-2.1-1.1-2.8c-0.7-0.7-1.8-1-3.2-1c-1.4,0-2.5,0.4-3.2,1
		c-0.7,0.7-1.1,1.6-1.1,2.8c0,0.6,0.1,1.1,0.3,1.6c0.2,0.5,0.5,0.9,0.8,1.3s0.8,0.6,1.4,0.8S250.1,85.2,250.8,85.2z"/>
	<path class="st2" d="M273.3,62.9v35h-5.9v-35H273.3z"/>
	<path class="st2" d="M290,73.3c1.5,0,3,0.2,4.2,0.7c1.3,0.5,2.4,1.2,3.3,2.1c0.9,0.9,1.7,2.1,2.2,3.4s0.8,2.9,0.8,4.7
		c0,0.4,0,0.8-0.1,1.1c0,0.3-0.1,0.5-0.2,0.7c-0.1,0.2-0.2,0.3-0.4,0.4s-0.4,0.1-0.7,0.1h-15.1c0.2,2.5,0.8,4.3,2,5.5
		c1.2,1.2,2.7,1.7,4.7,1.7c1,0,1.8-0.1,2.5-0.3c0.7-0.2,1.3-0.5,1.8-0.7c0.5-0.3,1-0.5,1.4-0.7c0.4-0.2,0.8-0.3,1.1-0.3
		c0.2,0,0.4,0,0.6,0.1c0.2,0.1,0.3,0.2,0.5,0.4l1.7,2.1c-0.7,0.8-1.4,1.4-2.2,1.9c-0.8,0.5-1.7,0.9-2.5,1.2
		c-0.9,0.3-1.8,0.5-2.7,0.6s-1.8,0.2-2.7,0.2c-1.7,0-3.3-0.3-4.7-0.8c-1.5-0.6-2.7-1.4-3.8-2.5c-1.1-1.1-1.9-2.4-2.5-4.1
		c-0.6-1.6-0.9-3.5-0.9-5.6c0-1.6,0.3-3.2,0.8-4.7c0.5-1.5,1.3-2.7,2.3-3.8c1-1.1,2.2-1.9,3.7-2.6C286.5,73.7,288.2,73.3,290,73.3z
		 M290.1,77.5c-1.7,0-3.1,0.5-4,1.4c-1,1-1.6,2.3-1.9,4.1h11c0-0.8-0.1-1.5-0.3-2.1c-0.2-0.7-0.5-1.3-1-1.8c-0.4-0.5-1-0.9-1.6-1.2
		C291.7,77.7,291,77.5,290.1,77.5z"/>
	<path class="st2" d="M321.5,85.9v12h-6.4V63.8h11.2c2.3,0,4.3,0.3,6,0.8c1.7,0.5,3.1,1.3,4.2,2.2s1.9,2.1,2.4,3.4
		c0.5,1.3,0.8,2.8,0.8,4.4c0,1.6-0.3,3.2-0.8,4.5c-0.6,1.4-1.4,2.6-2.5,3.5c-1.1,1-2.5,1.8-4.2,2.3c-1.7,0.5-3.6,0.8-5.9,0.8H321.5z
		 M321.5,81h4.8c1.2,0,2.2-0.1,3.1-0.4c0.9-0.3,1.6-0.7,2.2-1.2s1-1.2,1.3-2s0.4-1.6,0.4-2.6c0-0.9-0.1-1.7-0.4-2.5
		c-0.3-0.7-0.7-1.4-1.3-1.9c-0.6-0.5-1.3-0.9-2.2-1.2c-0.9-0.3-1.9-0.4-3.1-0.4h-4.8V81z"/>
	<path class="st2" d="M350.5,62.9v35h-5.9v-35H350.5z"/>
</g>
<g class="st1">
	<path class="st2" d="M376.3,97.9h-2.6c-0.6,0-1-0.1-1.3-0.2c-0.3-0.2-0.6-0.5-0.7-1l-0.5-1.7c-0.6,0.6-1.2,1-1.8,1.4
		s-1.2,0.8-1.8,1c-0.6,0.3-1.3,0.5-2,0.6s-1.5,0.2-2.4,0.2c-1,0-2-0.1-2.9-0.4c-0.9-0.3-1.6-0.7-2.2-1.2s-1.1-1.2-1.5-2.1
		c-0.3-0.8-0.5-1.8-0.5-2.9c0-0.9,0.2-1.8,0.7-2.7c0.5-0.9,1.3-1.7,2.4-2.4c1.1-0.7,2.6-1.3,4.5-1.8s4.2-0.7,7-0.7v-1.4
		c0-1.6-0.3-2.8-1-3.6c-0.7-0.8-1.7-1.2-3-1.2c-1,0-1.7,0.1-2.4,0.3c-0.6,0.2-1.2,0.5-1.7,0.7s-0.9,0.5-1.3,0.7s-0.8,0.3-1.3,0.3
		c-0.4,0-0.7-0.1-1-0.3c-0.3-0.2-0.5-0.5-0.7-0.8l-1.1-1.9c2.8-2.5,6.2-3.8,10.2-3.8c1.4,0,2.7,0.2,3.8,0.7c1.1,0.5,2.1,1.1,2.8,1.9
		c0.8,0.8,1.4,1.8,1.8,3c0.4,1.1,0.6,2.4,0.6,3.8V97.9z M364.9,94.3c0.6,0,1.2-0.1,1.7-0.2c0.5-0.1,1-0.3,1.4-0.5s0.9-0.5,1.3-0.8
		c0.4-0.3,0.8-0.7,1.3-1.1v-4c-1.7,0-3.1,0.1-4.3,0.3c-1.2,0.2-2.1,0.5-2.8,0.8s-1.2,0.7-1.5,1.2c-0.3,0.4-0.4,0.9-0.4,1.4
		c0,1,0.3,1.8,0.9,2.2C363.1,94,363.9,94.3,364.9,94.3z"/>
</g>
<g class="st1">
	<path class="st2" d="M389.9,104.5c-0.2,0.4-0.4,0.7-0.7,0.9c-0.3,0.2-0.7,0.3-1.3,0.3h-4.4l4.6-9.7l-9.9-22.4h5.1
		c0.5,0,0.8,0.1,1.1,0.3c0.3,0.2,0.4,0.5,0.6,0.8l5.2,12.5c0.2,0.4,0.3,0.8,0.5,1.3c0.1,0.4,0.2,0.9,0.3,1.3
		c0.1-0.5,0.3-0.9,0.4-1.3c0.2-0.4,0.3-0.9,0.5-1.3l4.9-12.5c0.1-0.3,0.3-0.6,0.6-0.8c0.3-0.2,0.6-0.3,1-0.3h4.7L389.9,104.5z"/>
</g>
<g class="st1">
	<path class="st2" d="M160.9,38.1V44h7.2v2.4h-7.2V54h-3V35.7h11.6v2.4H160.9z"/>
</g>
<g class="st1">
	<path class="st2" d="M169.9,42.8c1.5-1.4,3.3-2.1,5.3-2.1c0.8,0,1.4,0.1,2,0.4c0.6,0.2,1.1,0.6,1.5,1c0.4,0.4,0.7,1,0.9,1.6
		c0.2,0.6,0.3,1.3,0.3,2V54h-1.2c-0.3,0-0.5,0-0.6-0.1c-0.1-0.1-0.3-0.2-0.3-0.5l-0.3-1.1c-0.3,0.3-0.7,0.6-1,0.8
		c-0.3,0.2-0.7,0.4-1,0.6c-0.3,0.2-0.7,0.3-1.1,0.4c-0.4,0.1-0.8,0.1-1.3,0.1c-0.5,0-1-0.1-1.5-0.2c-0.5-0.1-0.9-0.4-1.2-0.7
		s-0.6-0.7-0.8-1.1s-0.3-0.9-0.3-1.5c0-0.5,0.1-1,0.4-1.5c0.3-0.5,0.7-0.9,1.3-1.3c0.6-0.4,1.4-0.7,2.5-0.9c1-0.2,2.3-0.4,3.8-0.4
		v-0.9c0-0.9-0.2-1.6-0.6-2.1c-0.4-0.5-1-0.7-1.8-0.7c-0.5,0-1,0.1-1.3,0.2c-0.4,0.1-0.7,0.3-0.9,0.4c-0.3,0.2-0.5,0.3-0.7,0.4
		c-0.2,0.1-0.4,0.2-0.7,0.2c-0.2,0-0.3,0-0.5-0.1s-0.2-0.2-0.3-0.4L169.9,42.8z M177.2,48.3c-1,0-1.8,0.1-2.5,0.2
		c-0.7,0.1-1.2,0.3-1.6,0.5c-0.4,0.2-0.7,0.4-0.9,0.7c-0.2,0.3-0.3,0.6-0.3,0.9c0,0.3,0,0.6,0.1,0.8s0.2,0.4,0.4,0.5
		c0.2,0.1,0.4,0.2,0.6,0.3c0.2,0.1,0.5,0.1,0.8,0.1c0.7,0,1.3-0.1,1.9-0.4s1-0.7,1.5-1.2V48.3z"/>
	<path class="st2" d="M193.2,52.1c-0.5,0.6-1.2,1.1-1.9,1.4s-1.5,0.5-2.3,0.6l-0.2,0.7c0.8,0.2,1.4,0.4,1.7,0.7
		c0.3,0.3,0.5,0.7,0.5,1.1c0,0.3-0.1,0.5-0.2,0.8s-0.3,0.4-0.6,0.6s-0.6,0.3-0.9,0.4c-0.4,0.1-0.8,0.1-1.2,0.1c-0.4,0-0.7,0-1-0.1
		s-0.6-0.1-0.9-0.3l0.3-0.9c0.1-0.2,0.2-0.3,0.3-0.3c0.1,0,0.1,0,0.2,0c0.1,0,0.1,0.1,0.2,0.1c0.1,0,0.2,0.1,0.3,0.1
		c0.1,0,0.3,0,0.4,0c0.3,0,0.6-0.1,0.7-0.2c0.2-0.1,0.2-0.3,0.2-0.5c0-0.3-0.2-0.5-0.5-0.6c-0.3-0.1-0.8-0.2-1.5-0.3l0.6-1.6
		c-0.7-0.1-1.4-0.3-2-0.6s-1.2-0.8-1.6-1.4c-0.5-0.6-0.8-1.2-1.1-2c-0.3-0.8-0.4-1.7-0.4-2.6c0-1,0.1-1.8,0.4-2.7
		c0.3-0.8,0.7-1.5,1.2-2.1c0.5-0.6,1.2-1.1,2-1.4c0.8-0.3,1.7-0.5,2.7-0.5c1,0,1.8,0.2,2.5,0.5c0.7,0.3,1.4,0.7,1.9,1.3l-0.7,1
		c-0.1,0.1-0.2,0.2-0.2,0.3c-0.1,0.1-0.2,0.1-0.3,0.1s-0.3-0.1-0.5-0.2c-0.2-0.1-0.3-0.2-0.6-0.3s-0.5-0.2-0.8-0.3
		c-0.3-0.1-0.7-0.2-1.2-0.2c-0.6,0-1.1,0.1-1.6,0.3c-0.5,0.2-0.8,0.5-1.1,0.9c-0.3,0.4-0.5,0.9-0.7,1.4s-0.2,1.2-0.2,1.9
		c0,0.7,0.1,1.4,0.2,1.9c0.2,0.6,0.4,1,0.7,1.4c0.3,0.4,0.7,0.7,1.1,0.9s0.9,0.3,1.5,0.3c0.5,0,1-0.1,1.3-0.2s0.6-0.3,0.8-0.4
		c0.2-0.2,0.4-0.3,0.6-0.4s0.3-0.2,0.5-0.2c0.2,0,0.4,0.1,0.5,0.3L193.2,52.1z"/>
	<path class="st2" d="M195.1,42.8c1.5-1.4,3.3-2.1,5.3-2.1c0.8,0,1.4,0.1,2,0.4c0.6,0.2,1.1,0.6,1.5,1c0.4,0.4,0.7,1,0.9,1.6
		c0.2,0.6,0.3,1.3,0.3,2V54h-1.2c-0.3,0-0.5,0-0.6-0.1c-0.1-0.1-0.3-0.2-0.3-0.5l-0.3-1.1c-0.3,0.3-0.7,0.6-1,0.8
		c-0.3,0.2-0.7,0.4-1,0.6c-0.3,0.2-0.7,0.3-1.1,0.4c-0.4,0.1-0.8,0.1-1.3,0.1c-0.5,0-1-0.1-1.5-0.2c-0.5-0.1-0.9-0.4-1.2-0.7
		s-0.6-0.7-0.8-1.1s-0.3-0.9-0.3-1.5c0-0.5,0.1-1,0.4-1.5c0.3-0.5,0.7-0.9,1.3-1.3c0.6-0.4,1.4-0.7,2.5-0.9c1-0.2,2.3-0.4,3.8-0.4
		v-0.9c0-0.9-0.2-1.6-0.6-2.1c-0.4-0.5-1-0.7-1.8-0.7c-0.5,0-1,0.1-1.3,0.2c-0.4,0.1-0.7,0.3-0.9,0.4c-0.3,0.2-0.5,0.3-0.7,0.4
		c-0.2,0.1-0.4,0.2-0.7,0.2c-0.2,0-0.3,0-0.5-0.1s-0.2-0.2-0.3-0.4L195.1,42.8z M202.5,48.3c-1,0-1.8,0.1-2.5,0.2
		c-0.7,0.1-1.2,0.3-1.6,0.5c-0.4,0.2-0.7,0.4-0.9,0.7c-0.2,0.3-0.3,0.6-0.3,0.9c0,0.3,0,0.6,0.1,0.8s0.2,0.4,0.4,0.5
		c0.2,0.1,0.4,0.2,0.6,0.3c0.2,0.1,0.5,0.1,0.8,0.1c0.7,0,1.3-0.1,1.9-0.4s1-0.7,1.5-1.2V48.3z"/>
	<path class="st2" d="M222.6,43.4c-0.1,0.1-0.1,0.2-0.2,0.3c-0.1,0.1-0.2,0.1-0.3,0.1c-0.1,0-0.3,0-0.5-0.1s-0.4-0.2-0.6-0.3
		c-0.2-0.1-0.5-0.2-0.8-0.3c-0.3-0.1-0.7-0.1-1.1-0.1c-0.3,0-0.7,0-0.9,0.1c-0.3,0.1-0.5,0.2-0.7,0.3c-0.2,0.1-0.3,0.3-0.4,0.5
		c-0.1,0.2-0.2,0.4-0.2,0.6c0,0.3,0.1,0.6,0.3,0.8c0.2,0.2,0.4,0.4,0.7,0.5c0.3,0.1,0.7,0.3,1.1,0.4c0.4,0.1,0.8,0.2,1.2,0.4
		c0.4,0.1,0.8,0.3,1.2,0.5c0.4,0.2,0.7,0.4,1.1,0.7c0.3,0.3,0.6,0.6,0.7,0.9c0.2,0.4,0.3,0.8,0.3,1.3c0,0.6-0.1,1.2-0.3,1.7
		s-0.5,1-1,1.4s-1,0.7-1.6,0.9c-0.6,0.2-1.4,0.3-2.2,0.3c-0.5,0-0.9,0-1.3-0.1c-0.4-0.1-0.8-0.2-1.2-0.3c-0.4-0.1-0.7-0.3-1.1-0.5
		s-0.6-0.4-0.9-0.6l0.6-1c0.1-0.1,0.2-0.2,0.3-0.3c0.1-0.1,0.3-0.1,0.4-0.1c0.2,0,0.4,0.1,0.5,0.2s0.4,0.2,0.6,0.4
		c0.2,0.1,0.5,0.3,0.9,0.4c0.3,0.1,0.8,0.2,1.2,0.2c0.4,0,0.8,0,1.1-0.1c0.3-0.1,0.5-0.2,0.7-0.4s0.3-0.4,0.4-0.6
		c0.1-0.2,0.1-0.4,0.1-0.7c0-0.3-0.1-0.6-0.3-0.8c-0.2-0.2-0.4-0.4-0.8-0.5c-0.3-0.2-0.7-0.3-1.1-0.4c-0.4-0.1-0.8-0.2-1.2-0.4
		s-0.8-0.3-1.2-0.5c-0.4-0.2-0.8-0.4-1.1-0.7c-0.3-0.3-0.6-0.6-0.8-1c-0.2-0.4-0.3-0.9-0.3-1.4c0-0.5,0.1-1,0.3-1.5
		c0.2-0.5,0.5-0.9,0.9-1.2c0.4-0.4,0.9-0.6,1.5-0.8c0.6-0.2,1.3-0.3,2.1-0.3c0.9,0,1.7,0.1,2.4,0.4s1.3,0.7,1.8,1.1L222.6,43.4z"/>
	<path class="st2" d="M228,47.7c0,0.7,0.1,1.4,0.3,1.9c0.2,0.5,0.5,1,0.8,1.3c0.3,0.4,0.7,0.6,1.2,0.8c0.5,0.2,1,0.3,1.5,0.3
		c0.5,0,1-0.1,1.4-0.2s0.7-0.3,1-0.4c0.3-0.1,0.5-0.3,0.7-0.4s0.4-0.2,0.6-0.2c0.2,0,0.4,0.1,0.5,0.3l0.8,1c-0.3,0.4-0.7,0.7-1.1,1
		c-0.4,0.3-0.8,0.5-1.3,0.6s-0.9,0.3-1.4,0.4c-0.5,0.1-1,0.1-1.4,0.1c-0.9,0-1.8-0.2-2.5-0.5s-1.4-0.7-2-1.3c-0.6-0.6-1-1.3-1.3-2.2
		s-0.5-1.9-0.5-3c0-0.9,0.1-1.7,0.4-2.5c0.3-0.8,0.7-1.5,1.2-2c0.5-0.6,1.2-1,2-1.4s1.6-0.5,2.6-0.5c0.8,0,1.6,0.1,2.2,0.4
		c0.7,0.3,1.3,0.6,1.8,1.1c0.5,0.5,0.9,1.1,1.2,1.8c0.3,0.7,0.4,1.6,0.4,2.5c0,0.4,0,0.7-0.1,0.9c-0.1,0.1-0.3,0.2-0.5,0.2H228z
		 M234.6,46.1c0-0.5-0.1-0.9-0.2-1.3c-0.1-0.4-0.3-0.7-0.6-1s-0.6-0.5-1-0.7c-0.4-0.2-0.8-0.2-1.3-0.2c-1,0-1.8,0.3-2.4,0.9
		c-0.6,0.6-0.9,1.4-1.1,2.4H234.6z"/>
	<path class="st2" d="M250.8,41v13h-1.7c-0.4,0-0.6-0.2-0.7-0.5l-0.2-1.2c-0.3,0.3-0.6,0.6-0.9,0.8c-0.3,0.2-0.6,0.4-1,0.6
		c-0.3,0.2-0.7,0.3-1.1,0.4c-0.4,0.1-0.8,0.1-1.3,0.1c-0.7,0-1.4-0.1-1.9-0.4s-1-0.6-1.4-1s-0.7-1-0.8-1.6c-0.2-0.6-0.3-1.3-0.3-2
		V41h2.8v8.3c0,0.9,0.2,1.6,0.6,2c0.4,0.5,1,0.7,1.9,0.7c0.6,0,1.2-0.1,1.7-0.4s1-0.7,1.5-1.1V41H250.8z"/>
	<path class="st2" d="M271.7,35.2V54H270c-0.4,0-0.6-0.2-0.7-0.5l-0.2-1.4c-0.5,0.6-1.2,1.2-1.9,1.5s-1.5,0.6-2.4,0.6
		c-0.7,0-1.4-0.1-2-0.4s-1.1-0.7-1.5-1.3c-0.4-0.6-0.8-1.3-1-2.1c-0.2-0.8-0.4-1.8-0.4-2.8c0-1,0.1-1.9,0.4-2.7
		c0.3-0.8,0.6-1.5,1.1-2.1c0.5-0.6,1.1-1.1,1.8-1.4c0.7-0.3,1.5-0.5,2.3-0.5c0.8,0,1.4,0.1,2,0.4c0.5,0.2,1,0.6,1.5,1v-7H271.7z
		 M268.9,44.2c-0.4-0.5-0.8-0.8-1.3-1c-0.5-0.2-1-0.3-1.5-0.3c-1.1,0-1.9,0.4-2.5,1.2s-0.9,1.9-0.9,3.5c0,0.8,0.1,1.5,0.2,2
		c0.1,0.6,0.3,1,0.6,1.4c0.3,0.4,0.6,0.6,0.9,0.8c0.4,0.2,0.8,0.2,1.2,0.2c0.7,0,1.3-0.2,1.8-0.5c0.5-0.3,1-0.7,1.4-1.3V44.2z"/>
</g>
<g class="st1">
	<path class="st2" d="M280.7,40.8c1,0,1.8,0.2,2.6,0.5c0.8,0.3,1.5,0.8,2,1.3c0.6,0.6,1,1.3,1.3,2.1c0.3,0.8,0.4,1.8,0.4,2.8
		c0,1-0.2,2-0.4,2.8c-0.3,0.8-0.7,1.5-1.3,2.1c-0.6,0.6-1.2,1-2,1.3c-0.8,0.3-1.7,0.5-2.6,0.5c-1,0-1.9-0.2-2.6-0.5
		c-0.8-0.3-1.5-0.8-2-1.3c-0.6-0.6-1-1.3-1.3-2.1c-0.3-0.8-0.5-1.7-0.5-2.8c0-1,0.2-2,0.5-2.8c0.3-0.8,0.7-1.5,1.3-2.1
		c0.6-0.6,1.2-1,2-1.3C278.9,41,279.7,40.8,280.7,40.8z M280.7,52.1c1.2,0,2.1-0.4,2.6-1.2s0.9-1.9,0.9-3.4c0-1.5-0.3-2.6-0.9-3.4
		c-0.6-0.8-1.5-1.2-2.6-1.2c-1.2,0-2.1,0.4-2.7,1.2c-0.6,0.8-0.9,1.9-0.9,3.4c0,1.5,0.3,2.6,0.9,3.4
		C278.6,51.7,279.5,52.1,280.7,52.1z"/>
</g>
<g class="st1">
	<path class="st2" d="M308,41l-4.2,13h-2.2c-0.3,0-0.4-0.2-0.5-0.5l-2.6-8.1c-0.1-0.2-0.1-0.5-0.2-0.7c-0.1-0.2-0.1-0.5-0.1-0.7
		c-0.1,0.5-0.2,0.9-0.3,1.4l-2.7,8.1c-0.1,0.3-0.3,0.5-0.6,0.5h-2.1l-4.2-13h2.2c0.2,0,0.4,0.1,0.5,0.2c0.1,0.1,0.2,0.2,0.3,0.4
		l2.2,7.6c0.1,0.3,0.2,0.7,0.2,1c0.1,0.3,0.1,0.7,0.2,1c0.1-0.3,0.2-0.6,0.3-1c0.1-0.3,0.2-0.7,0.3-1l2.5-7.6c0-0.2,0.1-0.3,0.3-0.4
		c0.1-0.1,0.3-0.1,0.5-0.1h1.2c0.2,0,0.4,0,0.5,0.1c0.1,0.1,0.2,0.2,0.3,0.4l2.4,7.6c0.1,0.3,0.2,0.7,0.3,1c0.1,0.3,0.2,0.7,0.2,1
		c0.1-0.3,0.1-0.6,0.2-1c0.1-0.3,0.2-0.7,0.2-1l2.2-7.6c0.1-0.2,0.1-0.3,0.3-0.4c0.1-0.1,0.3-0.2,0.5-0.2H308z"/>
	<path class="st2" d="M312.6,42.7c0.3-0.3,0.6-0.5,0.9-0.8c0.3-0.2,0.6-0.4,1-0.6c0.3-0.2,0.7-0.3,1.1-0.4c0.4-0.1,0.8-0.1,1.3-0.1
		c0.7,0,1.4,0.1,1.9,0.4c0.5,0.2,1,0.6,1.4,1c0.4,0.4,0.7,1,0.8,1.6c0.2,0.6,0.3,1.3,0.3,2V54h-2.8v-8.3c0-0.9-0.2-1.6-0.6-2
		c-0.4-0.5-1-0.7-1.9-0.7c-0.6,0-1.2,0.1-1.7,0.4s-1,0.7-1.5,1.1V54H310V41h1.7c0.4,0,0.6,0.2,0.7,0.5L312.6,42.7z"/>
	<path class="st2" d="M327.2,35.2V54h-2.8V35.2H327.2z"/>
	<path class="st2" d="M336.3,40.8c1,0,1.8,0.2,2.6,0.5c0.8,0.3,1.5,0.8,2,1.3c0.6,0.6,1,1.3,1.3,2.1c0.3,0.8,0.5,1.8,0.5,2.8
		c0,1-0.2,2-0.5,2.8c-0.3,0.8-0.7,1.5-1.3,2.1c-0.6,0.6-1.2,1-2,1.3c-0.8,0.3-1.7,0.5-2.6,0.5c-1,0-1.9-0.2-2.6-0.5s-1.5-0.8-2-1.3
		c-0.6-0.6-1-1.3-1.3-2.1c-0.3-0.8-0.5-1.7-0.5-2.8c0-1,0.2-2,0.5-2.8c0.3-0.8,0.7-1.5,1.3-2.1c0.6-0.6,1.2-1,2-1.3
		C334.5,41,335.4,40.8,336.3,40.8z M336.3,52.1c1.2,0,2.1-0.4,2.6-1.2c0.6-0.8,0.9-1.9,0.9-3.4c0-1.5-0.3-2.6-0.9-3.4
		c-0.6-0.8-1.5-1.2-2.6-1.2c-1.2,0-2.1,0.4-2.7,1.2c-0.6,0.8-0.9,1.9-0.9,3.4c0,1.5,0.3,2.6,0.9,3.4S335.1,52.1,336.3,52.1z"/>
	<path class="st2" d="M345,42.8c1.5-1.4,3.3-2.1,5.3-2.1c0.8,0,1.4,0.1,2,0.4c0.6,0.2,1.1,0.6,1.5,1c0.4,0.4,0.7,1,0.9,1.6
		c0.2,0.6,0.3,1.3,0.3,2V54h-1.2c-0.3,0-0.5,0-0.6-0.1c-0.1-0.1-0.3-0.2-0.3-0.5l-0.3-1.1c-0.3,0.3-0.7,0.6-1,0.8
		c-0.3,0.2-0.7,0.4-1,0.6c-0.3,0.2-0.7,0.3-1.1,0.4c-0.4,0.1-0.8,0.1-1.3,0.1c-0.5,0-1-0.1-1.5-0.2c-0.5-0.1-0.9-0.4-1.2-0.7
		c-0.3-0.3-0.6-0.7-0.8-1.1c-0.2-0.4-0.3-0.9-0.3-1.5c0-0.5,0.1-1,0.4-1.5s0.7-0.9,1.3-1.3s1.4-0.7,2.5-0.9c1-0.2,2.3-0.4,3.8-0.4
		v-0.9c0-0.9-0.2-1.6-0.6-2.1c-0.4-0.5-1-0.7-1.8-0.7c-0.5,0-1,0.1-1.3,0.2c-0.4,0.1-0.7,0.3-0.9,0.4c-0.3,0.2-0.5,0.3-0.7,0.4
		c-0.2,0.1-0.4,0.2-0.7,0.2c-0.2,0-0.3,0-0.5-0.1c-0.1-0.1-0.2-0.2-0.3-0.4L345,42.8z M352.4,48.3c-1,0-1.8,0.1-2.5,0.2
		s-1.2,0.3-1.6,0.5c-0.4,0.2-0.7,0.4-0.9,0.7c-0.2,0.3-0.3,0.6-0.3,0.9c0,0.3,0,0.6,0.1,0.8s0.2,0.4,0.4,0.5s0.4,0.2,0.6,0.3
		c0.2,0.1,0.5,0.1,0.8,0.1c0.7,0,1.3-0.1,1.9-0.4c0.5-0.3,1-0.7,1.5-1.2V48.3z"/>
	<path class="st2" d="M369.4,35.2V54h-1.7c-0.4,0-0.6-0.2-0.7-0.5l-0.2-1.4c-0.5,0.6-1.2,1.2-1.9,1.5c-0.7,0.4-1.5,0.6-2.4,0.6
		c-0.7,0-1.4-0.1-2-0.4s-1.1-0.7-1.5-1.3s-0.8-1.3-1-2.1c-0.2-0.8-0.4-1.8-0.4-2.8c0-1,0.1-1.9,0.4-2.7c0.3-0.8,0.6-1.5,1.1-2.1
		c0.5-0.6,1.1-1.1,1.8-1.4c0.7-0.3,1.5-0.5,2.3-0.5c0.8,0,1.4,0.1,2,0.4c0.5,0.2,1,0.6,1.5,1v-7H369.4z M366.7,44.2
		c-0.4-0.5-0.8-0.8-1.3-1c-0.5-0.2-1-0.3-1.5-0.3c-1.1,0-1.9,0.4-2.5,1.2s-0.9,1.9-0.9,3.5c0,0.8,0.1,1.5,0.2,2
		c0.1,0.6,0.3,1,0.6,1.4c0.3,0.4,0.6,0.6,0.9,0.8c0.4,0.2,0.8,0.2,1.2,0.2c0.7,0,1.3-0.2,1.8-0.5c0.5-0.3,1-0.7,1.4-1.3V44.2z"/>
	<path class="st2" d="M381.8,42.7c0.3-0.3,0.6-0.5,0.9-0.8c0.3-0.2,0.6-0.4,1-0.6c0.3-0.2,0.7-0.3,1.1-0.4c0.4-0.1,0.8-0.1,1.3-0.1
		c0.7,0,1.4,0.1,1.9,0.4c0.5,0.2,1,0.6,1.4,1c0.4,0.4,0.7,1,0.8,1.6c0.2,0.6,0.3,1.3,0.3,2V54h-2.8v-8.3c0-0.9-0.2-1.6-0.6-2
		c-0.4-0.5-1-0.7-1.9-0.7c-0.6,0-1.2,0.1-1.7,0.4s-1,0.7-1.5,1.1V54h-2.8V41h1.7c0.4,0,0.6,0.2,0.7,0.5L381.8,42.7z"/>
	<path class="st2" d="M393.3,42.8c1.5-1.4,3.3-2.1,5.3-2.1c0.8,0,1.4,0.1,2,0.4c0.6,0.2,1.1,0.6,1.5,1c0.4,0.4,0.7,1,0.9,1.6
		c0.2,0.6,0.3,1.3,0.3,2V54h-1.2c-0.3,0-0.5,0-0.6-0.1c-0.1-0.1-0.3-0.2-0.3-0.5l-0.3-1.1c-0.3,0.3-0.7,0.6-1,0.8
		c-0.3,0.2-0.7,0.4-1,0.6c-0.3,0.2-0.7,0.3-1.1,0.4c-0.4,0.1-0.8,0.1-1.3,0.1c-0.5,0-1-0.1-1.5-0.2c-0.5-0.1-0.9-0.4-1.2-0.7
		c-0.3-0.3-0.6-0.7-0.8-1.1c-0.2-0.4-0.3-0.9-0.3-1.5c0-0.5,0.1-1,0.4-1.5s0.7-0.9,1.3-1.3s1.4-0.7,2.5-0.9c1-0.2,2.3-0.4,3.8-0.4
		v-0.9c0-0.9-0.2-1.6-0.6-2.1c-0.4-0.5-1-0.7-1.8-0.7c-0.5,0-1,0.1-1.3,0.2c-0.4,0.1-0.7,0.3-0.9,0.4c-0.3,0.2-0.5,0.3-0.7,0.4
		c-0.2,0.1-0.4,0.2-0.7,0.2c-0.2,0-0.3,0-0.5-0.1c-0.1-0.1-0.2-0.2-0.3-0.4L393.3,42.8z M400.7,48.3c-1,0-1.8,0.1-2.5,0.2
		s-1.2,0.3-1.6,0.5c-0.4,0.2-0.7,0.4-0.9,0.7c-0.2,0.3-0.3,0.6-0.3,0.9c0,0.3,0,0.6,0.1,0.8s0.2,0.4,0.4,0.5s0.4,0.2,0.6,0.3
		c0.2,0.1,0.5,0.1,0.8,0.1c0.7,0,1.3-0.1,1.9-0.4c0.5-0.3,1-0.7,1.5-1.2V48.3z"/>
</g>
<g>
	<path class="st2" d="M109.5,69.3L32.1,24.7c-1.6-0.9-3.6-0.4-4.5,1.2c-0.3,0.5-0.5,1.1-0.5,1.7v89.3c0,1.8,1.5,3.3,3.3,3.3
		c0.6,0,1.2-0.2,1.7-0.5L109.5,75c1.6-0.9,2.1-3,1.2-4.5C110.3,70,109.9,69.6,109.5,69.3z"/>
</g>
</svg>
