<?xml version="1.0" encoding="utf-8"?>
<!-- Generator: Adobe Illustrator 26.0.0, SVG Export Plug-In . SVG Version: 6.00 Build 0)  -->
<svg version="1.1" id="Camada_1" xmlns="http://www.w3.org/2000/svg" xmlns:xlink="http://www.w3.org/1999/xlink" x="0px" y="0px"
	 viewBox="0 0 432.1 144.3" style="enable-background:new 0 0 432.1 144.3;" xml:space="preserve">
<style type="text/css">
	.st0{fill:#00855A;}
	.st1{fill:#FFFFFF;}
	.st2{enable-background:new    ;}
</style>
<g>
	<path class="st0" d="M412.1,144.3H20c-11,0-20-9-20-20V20C0,9,9,0,20,0h392.1c11,0,20,9,20,20v104.3
		C432.1,135.4,423.1,144.3,412.1,144.3z"/>
</g>
<g id="Camada_2_00000098907185944537170890000008641156104798696614_">
	<g id="OBJECTS">
		<g>
			<path class="st1" d="M87.3,38.4c7-7,6.8-18.5,6.8-18.5s-11.5-0.2-18.5,6.8s-6.8,18.5-6.8,18.5S80.4,45.4,87.3,38.4z"/>
		</g>
		<g>
			<path class="st1" d="M99.9,76.7c0-9.2,4.7-17.8,12.4-22.8c-2.8-4.5-7.2-7.8-12.2-9.3C94.7,43,89,44,83.6,46.8
				c-6.9,3.7-15.2,3.7-22.1,0C56.2,44,50.5,43,45,44.6c-14.9,4.2-22.1,25.3-16,47.1s23.2,36.2,38.1,32c0.9-0.2,1.7-0.5,2.5-0.9
				c1.9-0.8,4-0.8,5.9,0c0.8,0.4,1.7,0.7,2.5,0.9c13,3.6,27.5-6.7,35.2-23.7C105,95.1,99.9,86.3,99.9,76.7z"/>
		</g>
		<g class="st2">
			<path class="st1" d="M185.2,103.3h-5c-0.6,0-1-0.1-1.4-0.4c-0.4-0.3-0.6-0.6-0.8-1l-2.6-7H161l-2.6,7c-0.1,0.4-0.4,0.7-0.8,1
				c-0.4,0.3-0.8,0.5-1.4,0.5h-5l13.7-34.5h6.6L185.2,103.3z M162.7,90.2h11.1l-4.2-11.5c-0.2-0.5-0.4-1.1-0.6-1.8s-0.5-1.4-0.7-2.3
				c-0.2,0.8-0.4,1.6-0.7,2.3s-0.4,1.3-0.6,1.8L162.7,90.2z"/>
			<path class="st1" d="M188.4,111.2V78.8h3.6c0.4,0,0.7,0.1,1,0.3c0.3,0.2,0.4,0.4,0.5,0.8l0.5,2.3c1-1.1,2.1-2,3.4-2.7
				c1.3-0.7,2.8-1,4.5-1c1.3,0,2.6,0.3,3.7,0.8c1.1,0.6,2.1,1.4,2.9,2.4c0.8,1.1,1.4,2.4,1.9,3.9c0.4,1.5,0.7,3.3,0.7,5.3
				c0,1.8-0.2,3.5-0.7,5.1c-0.5,1.6-1.2,2.9-2.1,4.1c-0.9,1.1-2,2-3.3,2.7c-1.3,0.6-2.8,1-4.4,1c-1.4,0-2.6-0.2-3.5-0.6
				c-1-0.4-1.8-1-2.6-1.8v10H188.4z M200,83c-1.2,0-2.3,0.3-3.2,0.8c-0.9,0.5-1.7,1.2-2.4,2.2v11c0.7,0.8,1.4,1.4,2.2,1.7
				c0.8,0.3,1.6,0.5,2.6,0.5c0.9,0,1.7-0.2,2.4-0.5c0.7-0.3,1.3-0.8,1.9-1.5c0.5-0.7,0.9-1.5,1.2-2.6c0.3-1,0.4-2.3,0.4-3.7
				c0-1.4-0.1-2.6-0.3-3.6c-0.2-1-0.6-1.8-1-2.4c-0.4-0.6-1-1.1-1.6-1.4C201.5,83.1,200.8,83,200,83z"/>
			<path class="st1" d="M215.7,111.2V78.8h3.6c0.4,0,0.7,0.1,1,0.3s0.4,0.4,0.5,0.8l0.5,2.3c1-1.1,2.1-2,3.4-2.7
				c1.3-0.7,2.8-1,4.5-1c1.3,0,2.6,0.3,3.7,0.8s2.1,1.4,2.9,2.4s1.4,2.4,1.9,3.9s0.7,3.3,0.7,5.3c0,1.8-0.2,3.5-0.7,5.1
				c-0.5,1.6-1.2,2.9-2.1,4.1c-0.9,1.1-2,2-3.3,2.7s-2.8,1-4.4,1c-1.4,0-2.6-0.2-3.5-0.6c-1-0.4-1.8-1-2.6-1.8v10H215.7z M227.2,83
				c-1.2,0-2.3,0.3-3.2,0.8c-0.9,0.5-1.7,1.2-2.4,2.2v11c0.7,0.8,1.4,1.4,2.2,1.7c0.8,0.3,1.6,0.5,2.6,0.5c0.9,0,1.7-0.2,2.4-0.5
				c0.7-0.3,1.3-0.8,1.9-1.5c0.5-0.7,0.9-1.5,1.2-2.6c0.3-1,0.4-2.3,0.4-3.7c0-1.4-0.1-2.6-0.3-3.6c-0.2-1-0.6-1.8-1-2.4
				c-0.4-0.6-1-1.1-1.6-1.4C228.7,83.1,228,83,227.2,83z"/>
			<path class="st1" d="M249.2,67.8v35.4h-5.9V67.8H249.2z"/>
			<path class="st1" d="M266.1,78.4c1.6,0,3,0.2,4.3,0.7c1.3,0.5,2.4,1.2,3.4,2.2c0.9,0.9,1.7,2.1,2.2,3.5s0.8,2.9,0.8,4.7
				c0,0.4,0,0.8-0.1,1.1c0,0.3-0.1,0.5-0.2,0.7c-0.1,0.2-0.2,0.3-0.4,0.4c-0.2,0.1-0.4,0.1-0.7,0.1h-15.3c0.2,2.5,0.9,4.4,2,5.5
				c1.2,1.2,2.8,1.8,4.7,1.8c1,0,1.8-0.1,2.5-0.3c0.7-0.2,1.3-0.5,1.8-0.7c0.5-0.3,1-0.5,1.4-0.7s0.8-0.3,1.1-0.3
				c0.2,0,0.4,0,0.6,0.1c0.2,0.1,0.3,0.2,0.5,0.4l1.7,2.1c-0.7,0.8-1.4,1.4-2.2,1.9s-1.7,0.9-2.6,1.2s-1.8,0.5-2.7,0.7
				c-0.9,0.1-1.8,0.2-2.7,0.2c-1.7,0-3.3-0.3-4.8-0.8c-1.5-0.6-2.8-1.4-3.9-2.5c-1.1-1.1-1.9-2.5-2.6-4.1c-0.6-1.6-0.9-3.5-0.9-5.7
				c0-1.7,0.3-3.2,0.8-4.7c0.5-1.5,1.3-2.7,2.3-3.8c1-1.1,2.3-2,3.7-2.6C262.6,78.7,264.3,78.4,266.1,78.4z M266.2,82.6
				c-1.7,0-3.1,0.5-4.1,1.5s-1.6,2.3-1.9,4.1h11.2c0-0.8-0.1-1.5-0.3-2.2s-0.5-1.3-1-1.8c-0.4-0.5-1-0.9-1.6-1.2
				C267.9,82.8,267.1,82.6,266.2,82.6z"/>
			<path class="st1" d="M309.9,75.1c-0.2,0.3-0.4,0.6-0.6,0.7s-0.5,0.2-0.8,0.2c-0.3,0-0.7-0.1-1.1-0.4c-0.4-0.2-0.9-0.5-1.4-0.8
				c-0.5-0.3-1.2-0.6-1.9-0.8c-0.7-0.2-1.6-0.4-2.6-0.4c-0.9,0-1.7,0.1-2.3,0.3c-0.7,0.2-1.2,0.5-1.7,0.9c-0.5,0.4-0.8,0.8-1,1.4
				s-0.3,1.1-0.3,1.8c0,0.8,0.2,1.5,0.7,2c0.5,0.5,1.1,1,1.8,1.4s1.6,0.7,2.6,1c1,0.3,1.9,0.6,2.9,1c1,0.3,2,0.7,2.9,1.2
				s1.8,1,2.6,1.7c0.8,0.7,1.4,1.5,1.8,2.5c0.5,1,0.7,2.2,0.7,3.6c0,1.6-0.3,3-0.8,4.4c-0.5,1.4-1.3,2.5-2.4,3.6
				c-1,1-2.3,1.8-3.8,2.4c-1.5,0.6-3.2,0.9-5.1,0.9c-1.1,0-2.2-0.1-3.3-0.3c-1.1-0.2-2.1-0.5-3.1-0.9c-1-0.4-1.9-0.9-2.8-1.4
				c-0.9-0.6-1.6-1.2-2.3-1.9l1.9-3.1c0.2-0.2,0.4-0.4,0.6-0.6c0.2-0.2,0.5-0.2,0.8-0.2c0.4,0,0.8,0.2,1.3,0.5
				c0.5,0.3,1,0.7,1.6,1.1c0.6,0.4,1.4,0.8,2.2,1.1c0.9,0.3,1.9,0.5,3.1,0.5c1.8,0,3.3-0.4,4.3-1.3c1-0.9,1.5-2.1,1.5-3.7
				c0-0.9-0.2-1.6-0.7-2.2c-0.5-0.6-1.1-1.1-1.8-1.4c-0.8-0.4-1.6-0.7-2.6-1s-1.9-0.6-2.9-0.9c-1-0.3-2-0.7-2.9-1.1s-1.8-1-2.6-1.7
				c-0.8-0.7-1.4-1.6-1.8-2.7c-0.5-1.1-0.7-2.4-0.7-4c0-1.3,0.3-2.5,0.8-3.7c0.5-1.2,1.2-2.2,2.2-3.2s2.2-1.7,3.6-2.2s3-0.8,4.8-0.8
				c2.1,0,3.9,0.3,5.7,1c1.7,0.6,3.2,1.5,4.4,2.7L309.9,75.1z"/>
			<path class="st1" d="M324.9,103.6c-2.1,0-3.8-0.6-4.9-1.8c-1.2-1.2-1.7-2.9-1.7-5V83.2h-2.5c-0.3,0-0.6-0.1-0.8-0.3
				c-0.2-0.2-0.3-0.5-0.3-0.9v-2.3l4-0.6l1.3-6.7c0.1-0.3,0.2-0.6,0.4-0.7s0.5-0.3,0.9-0.3h3.1V79h6.5v4.2h-6.5v13.2
				c0,0.8,0.2,1.4,0.6,1.8c0.4,0.4,0.9,0.6,1.5,0.6c0.4,0,0.7,0,0.9-0.1c0.2-0.1,0.5-0.2,0.7-0.3c0.2-0.1,0.3-0.2,0.5-0.3
				c0.1-0.1,0.3-0.1,0.4-0.1c0.2,0,0.3,0,0.4,0.1c0.1,0.1,0.2,0.2,0.4,0.4l1.8,2.9c-0.9,0.7-1.9,1.3-3,1.6
				C327.2,103.5,326.1,103.6,324.9,103.6z"/>
			<path class="st1" d="M345.9,78.4c1.8,0,3.5,0.3,5,0.9c1.5,0.6,2.8,1.4,3.8,2.5c1.1,1.1,1.9,2.4,2.5,4c0.6,1.6,0.9,3.3,0.9,5.2
				c0,1.9-0.3,3.7-0.9,5.2c-0.6,1.6-1.4,2.9-2.5,4c-1.1,1.1-2.3,1.9-3.8,2.5c-1.5,0.6-3.2,0.9-5,0.9s-3.5-0.3-5-0.9
				s-2.8-1.4-3.9-2.5c-1.1-1.1-1.9-2.4-2.5-4c-0.6-1.6-0.9-3.3-0.9-5.2c0-1.9,0.3-3.7,0.9-5.2s1.4-2.9,2.5-4
				c1.1-1.1,2.4-1.9,3.9-2.5C342.4,78.7,344.1,78.4,345.9,78.4z M345.9,99.1c2.1,0,3.6-0.7,4.6-2c1-1.4,1.5-3.4,1.5-6
				s-0.5-4.6-1.5-6c-1-1.4-2.5-2.1-4.6-2.1c-2.1,0-3.6,0.7-4.6,2.1c-1,1.4-1.5,3.4-1.5,6c0,2.6,0.5,4.6,1.5,6S343.8,99.1,345.9,99.1
				z"/>
			<path class="st1" d="M362.8,103.3V78.8h3.5c0.6,0,1,0.1,1.3,0.3c0.2,0.2,0.4,0.6,0.5,1.1l0.4,3c0.9-1.5,1.9-2.7,3.1-3.6
				s2.5-1.3,4-1.3c1.2,0,2.2,0.3,3,0.8l-0.8,4.4c0,0.3-0.2,0.5-0.3,0.6c-0.2,0.1-0.4,0.2-0.7,0.2c-0.2,0-0.6-0.1-1-0.2
				c-0.4-0.1-1-0.2-1.7-0.2c-1.2,0-2.3,0.3-3.2,1c-0.9,0.7-1.6,1.7-2.2,3v15.2H362.8z"/>
			<path class="st1" d="M392.6,78.4c1.6,0,3,0.2,4.3,0.7c1.3,0.5,2.4,1.2,3.4,2.2c0.9,0.9,1.7,2.1,2.2,3.5c0.5,1.4,0.8,2.9,0.8,4.7
				c0,0.4,0,0.8-0.1,1.1s-0.1,0.5-0.2,0.7c-0.1,0.2-0.2,0.3-0.4,0.4c-0.2,0.1-0.4,0.1-0.7,0.1h-15.3c0.2,2.5,0.9,4.4,2,5.5
				c1.2,1.2,2.8,1.8,4.7,1.8c1,0,1.8-0.1,2.5-0.3c0.7-0.2,1.3-0.5,1.8-0.7c0.5-0.3,1-0.5,1.4-0.7c0.4-0.2,0.8-0.3,1.1-0.3
				c0.2,0,0.4,0,0.6,0.1c0.2,0.1,0.3,0.2,0.5,0.4l1.7,2.1c-0.7,0.8-1.4,1.4-2.2,1.9s-1.7,0.9-2.6,1.2s-1.8,0.5-2.7,0.7
				s-1.8,0.2-2.7,0.2c-1.7,0-3.3-0.3-4.8-0.8s-2.8-1.4-3.9-2.5c-1.1-1.1-1.9-2.5-2.6-4.1c-0.6-1.6-0.9-3.5-0.9-5.7
				c0-1.7,0.3-3.2,0.8-4.7c0.5-1.5,1.3-2.7,2.3-3.8c1-1.1,2.3-2,3.7-2.6C389.1,78.7,390.8,78.4,392.6,78.4z M392.7,82.6
				c-1.7,0-3.1,0.5-4.1,1.5s-1.6,2.3-1.9,4.1H398c0-0.8-0.1-1.5-0.3-2.2c-0.2-0.7-0.5-1.3-1-1.8c-0.4-0.5-1-0.9-1.6-1.2
				S393.6,82.6,392.7,82.6z"/>
		</g>
		<g class="st2">
			<path class="st1" d="M161.3,43.3v5.9h7.2v2.4h-7.2v7.7h-3V40.8h11.6v2.4H161.3z"/>
		</g>
		<g class="st2">
			<path class="st1" d="M170.2,48c1.5-1.4,3.3-2.1,5.3-2.1c0.8,0,1.4,0.1,2,0.4c0.6,0.2,1.1,0.6,1.5,1c0.4,0.4,0.7,1,0.9,1.6
				c0.2,0.6,0.3,1.3,0.3,2v8.3H179c-0.3,0-0.5,0-0.6-0.1c-0.1-0.1-0.3-0.2-0.3-0.5l-0.3-1.1c-0.3,0.3-0.7,0.6-1,0.8
				c-0.3,0.2-0.7,0.4-1,0.6c-0.3,0.2-0.7,0.3-1.1,0.4c-0.4,0.1-0.8,0.1-1.3,0.1c-0.5,0-1-0.1-1.5-0.2c-0.5-0.1-0.9-0.4-1.2-0.7
				s-0.6-0.7-0.8-1.1s-0.3-0.9-0.3-1.5c0-0.5,0.1-1,0.4-1.5c0.3-0.5,0.7-0.9,1.3-1.3c0.6-0.4,1.4-0.7,2.5-0.9c1-0.2,2.3-0.4,3.8-0.4
				v-0.9c0-0.9-0.2-1.6-0.6-2.1c-0.4-0.5-1-0.7-1.8-0.7c-0.5,0-1,0.1-1.3,0.2c-0.4,0.1-0.7,0.3-0.9,0.4c-0.3,0.2-0.5,0.3-0.7,0.4
				c-0.2,0.1-0.4,0.2-0.7,0.2c-0.2,0-0.3,0-0.5-0.1s-0.2-0.2-0.3-0.4L170.2,48z M177.6,53.5c-1,0-1.8,0.1-2.5,0.2
				c-0.7,0.1-1.2,0.3-1.6,0.5c-0.4,0.2-0.7,0.4-0.9,0.7c-0.2,0.3-0.3,0.6-0.3,0.9c0,0.3,0,0.6,0.1,0.8s0.2,0.4,0.4,0.5
				c0.2,0.1,0.4,0.2,0.6,0.3c0.2,0.1,0.5,0.1,0.8,0.1c0.7,0,1.3-0.1,1.9-0.4s1-0.7,1.5-1.2V53.5z"/>
			<path class="st1" d="M193.6,57.3c-0.5,0.6-1.2,1.1-1.9,1.4s-1.5,0.5-2.3,0.6l-0.2,0.7c0.8,0.2,1.4,0.4,1.7,0.7
				c0.3,0.3,0.5,0.7,0.5,1.1c0,0.3-0.1,0.5-0.2,0.8s-0.3,0.4-0.6,0.6s-0.6,0.3-0.9,0.4c-0.4,0.1-0.8,0.1-1.2,0.1c-0.4,0-0.7,0-1-0.1
				s-0.6-0.1-0.9-0.3l0.3-0.9c0.1-0.2,0.2-0.3,0.3-0.3c0.1,0,0.1,0,0.2,0c0.1,0,0.1,0.1,0.2,0.1c0.1,0,0.2,0.1,0.3,0.1
				c0.1,0,0.3,0,0.4,0c0.3,0,0.6-0.1,0.7-0.2c0.2-0.1,0.2-0.3,0.2-0.5c0-0.3-0.2-0.5-0.5-0.6c-0.3-0.1-0.8-0.2-1.5-0.3l0.6-1.6
				c-0.7-0.1-1.4-0.3-2-0.6s-1.2-0.8-1.6-1.4c-0.5-0.6-0.8-1.2-1.1-2c-0.3-0.8-0.4-1.7-0.4-2.6c0-1,0.1-1.8,0.4-2.7
				c0.3-0.8,0.7-1.5,1.2-2.1c0.5-0.6,1.2-1.1,2-1.4c0.8-0.3,1.7-0.5,2.7-0.5c1,0,1.8,0.2,2.5,0.5c0.7,0.3,1.4,0.7,1.9,1.3l-0.7,1
				c-0.1,0.1-0.2,0.2-0.2,0.3c-0.1,0.1-0.2,0.1-0.3,0.1s-0.3-0.1-0.5-0.2c-0.2-0.1-0.3-0.2-0.6-0.3s-0.5-0.2-0.8-0.3
				c-0.3-0.1-0.7-0.2-1.2-0.2c-0.6,0-1.1,0.1-1.6,0.3c-0.5,0.2-0.8,0.5-1.1,0.9c-0.3,0.4-0.5,0.9-0.7,1.4s-0.2,1.2-0.2,1.9
				c0,0.7,0.1,1.4,0.2,1.9c0.2,0.6,0.4,1,0.7,1.4c0.3,0.4,0.7,0.7,1.1,0.9s0.9,0.3,1.5,0.3c0.5,0,1-0.1,1.3-0.2s0.6-0.3,0.8-0.4
				c0.2-0.2,0.4-0.3,0.6-0.4s0.3-0.2,0.5-0.2c0.2,0,0.4,0.1,0.5,0.3L193.6,57.3z"/>
			<path class="st1" d="M195.5,48c1.5-1.4,3.3-2.1,5.3-2.1c0.8,0,1.4,0.1,2,0.4c0.6,0.2,1.1,0.6,1.5,1c0.4,0.4,0.7,1,0.9,1.6
				c0.2,0.6,0.3,1.3,0.3,2v8.3h-1.2c-0.3,0-0.5,0-0.6-0.1c-0.1-0.1-0.3-0.2-0.3-0.5l-0.3-1.1c-0.3,0.3-0.7,0.6-1,0.8
				c-0.3,0.2-0.7,0.4-1,0.6c-0.3,0.2-0.7,0.3-1.1,0.4c-0.4,0.1-0.8,0.1-1.3,0.1c-0.5,0-1-0.1-1.5-0.2c-0.5-0.1-0.9-0.4-1.2-0.7
				s-0.6-0.7-0.8-1.1s-0.3-0.9-0.3-1.5c0-0.5,0.1-1,0.4-1.5c0.3-0.5,0.7-0.9,1.3-1.3c0.6-0.4,1.4-0.7,2.5-0.9c1-0.2,2.3-0.4,3.8-0.4
				v-0.9c0-0.9-0.2-1.6-0.6-2.1c-0.4-0.5-1-0.7-1.8-0.7c-0.5,0-1,0.1-1.3,0.2c-0.4,0.1-0.7,0.3-0.9,0.4c-0.3,0.2-0.5,0.3-0.7,0.4
				c-0.2,0.1-0.4,0.2-0.7,0.2c-0.2,0-0.3,0-0.5-0.1s-0.2-0.2-0.3-0.4L195.5,48z M202.9,53.5c-1,0-1.8,0.1-2.5,0.2
				c-0.7,0.1-1.2,0.3-1.6,0.5c-0.4,0.2-0.7,0.4-0.9,0.7c-0.2,0.3-0.3,0.6-0.3,0.9c0,0.3,0,0.6,0.1,0.8s0.2,0.4,0.4,0.5
				c0.2,0.1,0.4,0.2,0.6,0.3c0.2,0.1,0.5,0.1,0.8,0.1c0.7,0,1.3-0.1,1.9-0.4s1-0.7,1.5-1.2V53.5z"/>
			<path class="st1" d="M223,48.6c-0.1,0.1-0.1,0.2-0.2,0.3c-0.1,0.1-0.2,0.1-0.3,0.1c-0.1,0-0.3,0-0.5-0.1
				c-0.2-0.1-0.4-0.2-0.6-0.3c-0.2-0.1-0.5-0.2-0.8-0.3c-0.3-0.1-0.7-0.1-1.1-0.1c-0.3,0-0.7,0-0.9,0.1c-0.3,0.1-0.5,0.2-0.7,0.3
				c-0.2,0.1-0.3,0.3-0.4,0.5c-0.1,0.2-0.2,0.4-0.2,0.6c0,0.3,0.1,0.6,0.3,0.8c0.2,0.2,0.4,0.4,0.7,0.5s0.7,0.3,1.1,0.4
				c0.4,0.1,0.8,0.2,1.2,0.4c0.4,0.1,0.8,0.3,1.2,0.5c0.4,0.2,0.7,0.4,1.1,0.7c0.3,0.3,0.6,0.6,0.7,0.9c0.2,0.4,0.3,0.8,0.3,1.3
				c0,0.6-0.1,1.2-0.3,1.7s-0.5,1-1,1.4c-0.4,0.4-1,0.7-1.6,0.9c-0.6,0.2-1.4,0.3-2.2,0.3c-0.5,0-0.9,0-1.3-0.1
				c-0.4-0.1-0.8-0.2-1.2-0.3c-0.4-0.1-0.7-0.3-1.1-0.5s-0.6-0.4-0.9-0.6l0.6-1c0.1-0.1,0.2-0.2,0.3-0.3c0.1-0.1,0.3-0.1,0.4-0.1
				c0.2,0,0.4,0.1,0.5,0.2s0.4,0.2,0.6,0.4c0.2,0.1,0.5,0.3,0.9,0.4c0.3,0.1,0.8,0.2,1.2,0.2c0.4,0,0.8,0,1.1-0.1
				c0.3-0.1,0.5-0.2,0.7-0.4s0.3-0.4,0.4-0.6c0.1-0.2,0.1-0.4,0.1-0.7c0-0.3-0.1-0.6-0.3-0.8c-0.2-0.2-0.4-0.4-0.8-0.5
				c-0.3-0.2-0.7-0.3-1.1-0.4c-0.4-0.1-0.8-0.2-1.2-0.4c-0.4-0.1-0.8-0.3-1.2-0.5c-0.4-0.2-0.8-0.4-1.1-0.7c-0.3-0.3-0.6-0.6-0.8-1
				c-0.2-0.4-0.3-0.9-0.3-1.4c0-0.5,0.1-1,0.3-1.5c0.2-0.5,0.5-0.9,0.9-1.2c0.4-0.4,0.9-0.6,1.5-0.8c0.6-0.2,1.3-0.3,2.1-0.3
				c0.9,0,1.7,0.1,2.4,0.4s1.3,0.7,1.8,1.1L223,48.6z"/>
			<path class="st1" d="M228.4,52.9c0,0.7,0.2,1.4,0.3,1.9c0.2,0.5,0.5,1,0.8,1.3c0.3,0.4,0.7,0.6,1.2,0.8c0.5,0.2,1,0.3,1.5,0.3
				c0.5,0,1-0.1,1.4-0.2s0.7-0.3,1-0.4c0.3-0.1,0.5-0.3,0.7-0.4s0.4-0.2,0.6-0.2c0.2,0,0.4,0.1,0.5,0.3l0.8,1
				c-0.3,0.4-0.7,0.7-1.1,1c-0.4,0.3-0.8,0.5-1.3,0.6c-0.5,0.2-0.9,0.3-1.4,0.4c-0.5,0.1-1,0.1-1.4,0.1c-0.9,0-1.8-0.2-2.5-0.5
				s-1.5-0.7-2-1.3c-0.6-0.6-1-1.3-1.3-2.2s-0.5-1.9-0.5-3c0-0.9,0.1-1.7,0.4-2.5c0.3-0.8,0.7-1.5,1.2-2c0.5-0.6,1.2-1,2-1.4
				s1.6-0.5,2.6-0.5c0.8,0,1.6,0.1,2.2,0.4c0.7,0.3,1.3,0.6,1.8,1.1c0.5,0.5,0.9,1.1,1.2,1.8c0.3,0.7,0.4,1.6,0.4,2.5
				c0,0.4,0,0.7-0.1,0.9c-0.1,0.1-0.3,0.2-0.5,0.2H228.4z M235,51.2c0-0.5-0.1-0.9-0.2-1.3c-0.1-0.4-0.3-0.7-0.6-1s-0.6-0.5-1-0.7
				c-0.4-0.2-0.8-0.2-1.3-0.2c-1,0-1.8,0.3-2.4,0.9c-0.6,0.6-0.9,1.4-1.1,2.4H235z"/>
			<path class="st1" d="M251.1,46.2v13h-1.7c-0.4,0-0.6-0.2-0.7-0.5l-0.2-1.2c-0.3,0.3-0.6,0.6-0.9,0.8s-0.6,0.4-1,0.6
				s-0.7,0.3-1.1,0.4c-0.4,0.1-0.8,0.1-1.3,0.1c-0.7,0-1.4-0.1-1.9-0.4s-1-0.6-1.4-1c-0.4-0.4-0.7-1-0.8-1.6c-0.2-0.6-0.3-1.3-0.3-2
				v-8.3h2.8v8.3c0,0.9,0.2,1.6,0.6,2c0.4,0.5,1,0.7,1.9,0.7c0.6,0,1.2-0.1,1.7-0.4c0.5-0.3,1-0.7,1.5-1.1v-9.5H251.1z"/>
			<path class="st1" d="M272.1,40.3v18.9h-1.7c-0.4,0-0.6-0.2-0.7-0.5l-0.2-1.4c-0.5,0.6-1.2,1.2-1.9,1.5s-1.5,0.6-2.4,0.6
				c-0.7,0-1.4-0.1-2-0.4c-0.6-0.3-1.1-0.7-1.5-1.3s-0.8-1.3-1-2.1s-0.4-1.8-0.4-2.8c0-1,0.1-1.9,0.4-2.7c0.3-0.8,0.6-1.5,1.1-2.1
				c0.5-0.6,1.1-1.1,1.8-1.4c0.7-0.3,1.5-0.5,2.3-0.5c0.8,0,1.4,0.1,2,0.4c0.5,0.2,1,0.6,1.5,1v-7H272.1z M269.3,49.4
				c-0.4-0.5-0.8-0.8-1.3-1c-0.5-0.2-1-0.3-1.5-0.3c-1.1,0-1.9,0.4-2.5,1.2c-0.6,0.8-0.9,1.9-0.9,3.5c0,0.8,0.1,1.5,0.2,2
				c0.1,0.6,0.3,1,0.6,1.4c0.3,0.4,0.6,0.6,0.9,0.8s0.8,0.2,1.2,0.2c0.7,0,1.3-0.2,1.8-0.5c0.5-0.3,1-0.7,1.4-1.3V49.4z"/>
		</g>
		<g class="st2">
			<path class="st1" d="M281.1,46c1,0,1.8,0.2,2.6,0.5c0.8,0.3,1.5,0.8,2,1.3c0.6,0.6,1,1.3,1.3,2.1c0.3,0.8,0.5,1.8,0.5,2.8
				c0,1-0.2,2-0.5,2.8c-0.3,0.8-0.7,1.5-1.3,2.1c-0.6,0.6-1.2,1-2,1.3c-0.8,0.3-1.7,0.5-2.6,0.5c-1,0-1.9-0.2-2.6-0.5
				c-0.8-0.3-1.5-0.8-2-1.3c-0.6-0.6-1-1.3-1.3-2.1c-0.3-0.8-0.5-1.7-0.5-2.8c0-1,0.2-2,0.5-2.8c0.3-0.8,0.7-1.5,1.3-2.1
				c0.6-0.6,1.2-1,2-1.3C279.2,46.1,280.1,46,281.1,46z M281.1,57.2c1.2,0,2.1-0.4,2.6-1.2c0.6-0.8,0.9-1.9,0.9-3.4
				c0-1.5-0.3-2.6-0.9-3.4c-0.6-0.8-1.5-1.2-2.6-1.2c-1.2,0-2.1,0.4-2.7,1.2c-0.6,0.8-0.9,1.9-0.9,3.4c0,1.5,0.3,2.6,0.9,3.4
				S279.9,57.2,281.1,57.2z"/>
		</g>
		<g class="st2">
			<path class="st1" d="M308.3,46.2l-4.2,13h-2.2c-0.3,0-0.4-0.2-0.5-0.5l-2.6-8.1c-0.1-0.2-0.1-0.5-0.2-0.7
				c-0.1-0.2-0.1-0.5-0.1-0.7c-0.1,0.5-0.2,0.9-0.3,1.4l-2.7,8.1c-0.1,0.3-0.3,0.5-0.6,0.5h-2.1l-4.2-13h2.2c0.2,0,0.4,0.1,0.5,0.2
				c0.1,0.1,0.2,0.2,0.3,0.4l2.2,7.6c0.1,0.3,0.2,0.7,0.2,1c0.1,0.3,0.1,0.7,0.2,1c0.1-0.3,0.2-0.6,0.3-1c0.1-0.3,0.2-0.7,0.3-1
				l2.5-7.6c0-0.2,0.1-0.3,0.3-0.4s0.3-0.1,0.5-0.1h1.2c0.2,0,0.4,0,0.5,0.1s0.2,0.2,0.3,0.4l2.4,7.6c0.1,0.3,0.2,0.7,0.3,1
				c0.1,0.3,0.2,0.7,0.3,1c0.1-0.3,0.1-0.6,0.2-1c0.1-0.3,0.2-0.7,0.2-1l2.2-7.6c0.1-0.2,0.1-0.3,0.3-0.4c0.1-0.1,0.3-0.2,0.5-0.2
				H308.3z"/>
			<path class="st1" d="M312.9,47.9c0.3-0.3,0.6-0.5,0.9-0.8c0.3-0.2,0.6-0.4,1-0.6c0.3-0.2,0.7-0.3,1.1-0.4
				c0.4-0.1,0.8-0.1,1.3-0.1c0.7,0,1.4,0.1,1.9,0.4c0.5,0.2,1,0.6,1.4,1c0.4,0.4,0.7,1,0.8,1.6c0.2,0.6,0.3,1.3,0.3,2v8.3h-2.8v-8.3
				c0-0.9-0.2-1.6-0.6-2c-0.4-0.5-1-0.7-1.9-0.7c-0.6,0-1.2,0.1-1.7,0.4s-1,0.7-1.5,1.1v9.5h-2.8v-13h1.7c0.4,0,0.6,0.2,0.7,0.5
				L312.9,47.9z"/>
			<path class="st1" d="M327.6,40.3v18.9h-2.8V40.3H327.6z"/>
			<path class="st1" d="M336.7,46c1,0,1.8,0.2,2.6,0.5c0.8,0.3,1.5,0.8,2,1.3c0.6,0.6,1,1.3,1.3,2.1c0.3,0.8,0.5,1.8,0.5,2.8
				c0,1-0.2,2-0.5,2.8c-0.3,0.8-0.7,1.5-1.3,2.1c-0.6,0.6-1.2,1-2,1.3c-0.8,0.3-1.7,0.5-2.6,0.5c-1,0-1.9-0.2-2.6-0.5
				s-1.5-0.8-2-1.3c-0.6-0.6-1-1.3-1.3-2.1c-0.3-0.8-0.5-1.7-0.5-2.8c0-1,0.2-2,0.5-2.8c0.3-0.8,0.7-1.5,1.3-2.1
				c0.6-0.6,1.2-1,2-1.3C334.8,46.1,335.7,46,336.7,46z M336.7,57.2c1.2,0,2.1-0.4,2.6-1.2c0.6-0.8,0.9-1.9,0.9-3.4
				c0-1.5-0.3-2.6-0.9-3.4c-0.6-0.8-1.5-1.2-2.6-1.2c-1.2,0-2.1,0.4-2.7,1.2c-0.6,0.8-0.9,1.9-0.9,3.4c0,1.5,0.3,2.6,0.9,3.4
				S335.5,57.2,336.7,57.2z"/>
			<path class="st1" d="M345.4,48c1.5-1.4,3.3-2.1,5.3-2.1c0.8,0,1.4,0.1,2,0.4c0.6,0.2,1.1,0.6,1.5,1c0.4,0.4,0.7,1,0.9,1.6
				c0.2,0.6,0.3,1.3,0.3,2v8.3h-1.2c-0.3,0-0.5,0-0.6-0.1c-0.1-0.1-0.3-0.2-0.3-0.5l-0.3-1.1c-0.3,0.3-0.7,0.6-1,0.8
				c-0.3,0.2-0.7,0.4-1,0.6c-0.3,0.2-0.7,0.3-1.1,0.4c-0.4,0.1-0.8,0.1-1.3,0.1c-0.5,0-1-0.1-1.5-0.2c-0.5-0.1-0.9-0.4-1.2-0.7
				c-0.3-0.3-0.6-0.7-0.8-1.1c-0.2-0.4-0.3-0.9-0.3-1.5c0-0.5,0.1-1,0.4-1.5s0.7-0.9,1.3-1.3s1.4-0.7,2.5-0.9c1-0.2,2.3-0.4,3.8-0.4
				v-0.9c0-0.9-0.2-1.6-0.6-2.1c-0.4-0.5-1-0.7-1.8-0.7c-0.5,0-1,0.1-1.3,0.2c-0.4,0.1-0.7,0.3-0.9,0.4c-0.3,0.2-0.5,0.3-0.7,0.4
				c-0.2,0.1-0.4,0.2-0.7,0.2c-0.2,0-0.3,0-0.5-0.1c-0.1-0.1-0.2-0.2-0.3-0.4L345.4,48z M352.7,53.5c-1,0-1.8,0.1-2.5,0.2
				s-1.2,0.3-1.6,0.5c-0.4,0.2-0.7,0.4-0.9,0.7c-0.2,0.3-0.3,0.6-0.3,0.9c0,0.3,0,0.6,0.1,0.8s0.2,0.4,0.4,0.5s0.4,0.2,0.6,0.3
				c0.2,0.1,0.5,0.1,0.8,0.1c0.7,0,1.3-0.1,1.9-0.4c0.5-0.3,1-0.7,1.5-1.2V53.5z"/>
			<path class="st1" d="M369.8,40.3v18.9h-1.7c-0.4,0-0.6-0.2-0.7-0.5l-0.2-1.4c-0.5,0.6-1.2,1.2-1.9,1.5c-0.7,0.4-1.5,0.6-2.4,0.6
				c-0.7,0-1.4-0.1-2-0.4s-1.1-0.7-1.5-1.3s-0.8-1.3-1-2.1c-0.2-0.8-0.4-1.8-0.4-2.8c0-1,0.1-1.9,0.4-2.7c0.3-0.8,0.6-1.5,1.1-2.1
				c0.5-0.6,1.1-1.1,1.8-1.4c0.7-0.3,1.5-0.5,2.3-0.5c0.8,0,1.4,0.1,2,0.4c0.5,0.2,1,0.6,1.5,1v-7H369.8z M367,49.4
				c-0.4-0.5-0.8-0.8-1.3-1c-0.5-0.2-1-0.3-1.5-0.3c-1.1,0-1.9,0.4-2.5,1.2s-0.9,1.9-0.9,3.5c0,0.8,0.1,1.5,0.2,2
				c0.1,0.6,0.3,1,0.6,1.4c0.3,0.4,0.6,0.6,0.9,0.8c0.4,0.2,0.8,0.2,1.2,0.2c0.7,0,1.3-0.2,1.8-0.5c0.5-0.3,1-0.7,1.4-1.3V49.4z"/>
			<path class="st1" d="M382.2,47.9c0.3-0.3,0.6-0.5,0.9-0.8c0.3-0.2,0.6-0.4,1-0.6c0.3-0.2,0.7-0.3,1.1-0.4
				c0.4-0.1,0.8-0.1,1.3-0.1c0.7,0,1.4,0.1,1.9,0.4c0.5,0.2,1,0.6,1.4,1c0.4,0.4,0.7,1,0.8,1.6c0.2,0.6,0.3,1.3,0.3,2v8.3H388v-8.3
				c0-0.9-0.2-1.6-0.6-2c-0.4-0.5-1-0.7-1.9-0.7c-0.6,0-1.2,0.1-1.7,0.4s-1,0.7-1.5,1.1v9.5h-2.8v-13h1.7c0.4,0,0.6,0.2,0.7,0.5
				L382.2,47.9z"/>
			<path class="st1" d="M393.7,48c1.5-1.4,3.3-2.1,5.3-2.1c0.8,0,1.4,0.1,2,0.4c0.6,0.2,1.1,0.6,1.5,1c0.4,0.4,0.7,1,0.9,1.6
				c0.2,0.6,0.3,1.3,0.3,2v8.3h-1.2c-0.3,0-0.5,0-0.6-0.1c-0.1-0.1-0.3-0.2-0.3-0.5l-0.3-1.1c-0.3,0.3-0.7,0.6-1,0.8
				c-0.3,0.2-0.7,0.4-1,0.6c-0.3,0.2-0.7,0.3-1.1,0.4c-0.4,0.1-0.8,0.1-1.3,0.1c-0.5,0-1-0.1-1.5-0.2c-0.5-0.1-0.9-0.4-1.2-0.7
				c-0.3-0.3-0.6-0.7-0.8-1.1c-0.2-0.4-0.3-0.9-0.3-1.5c0-0.5,0.1-1,0.4-1.5s0.7-0.9,1.3-1.3s1.4-0.7,2.5-0.9c1-0.2,2.3-0.4,3.8-0.4
				v-0.9c0-0.9-0.2-1.6-0.6-2.1c-0.4-0.5-1-0.7-1.8-0.7c-0.5,0-1,0.1-1.3,0.2c-0.4,0.1-0.7,0.3-0.9,0.4c-0.3,0.2-0.5,0.3-0.7,0.4
				c-0.2,0.1-0.4,0.2-0.7,0.2c-0.2,0-0.3,0-0.5-0.1c-0.1-0.1-0.2-0.2-0.3-0.4L393.7,48z M401,53.5c-1,0-1.8,0.1-2.5,0.2
				s-1.2,0.3-1.6,0.5c-0.4,0.2-0.7,0.4-0.9,0.7c-0.2,0.3-0.3,0.6-0.3,0.9c0,0.3,0,0.6,0.1,0.8s0.2,0.4,0.4,0.5s0.4,0.2,0.6,0.3
				c0.2,0.1,0.5,0.1,0.8,0.1c0.7,0,1.3-0.1,1.9-0.4c0.5-0.3,1-0.7,1.5-1.2V53.5z"/>
		</g>
	</g>
</g>
</svg>
