<?xml version="1.0" encoding="utf-8"?>
<!-- Generator: Adobe Illustrator 26.0.0, SVG Export Plug-In . SVG Version: 6.00 Build 0)  -->
<svg version="1.1" id="Camada_1" xmlns="http://www.w3.org/2000/svg" xmlns:xlink="http://www.w3.org/1999/xlink" x="0px" y="0px"
	 viewBox="0 0 432.1 144.3" style="enable-background:new 0 0 432.1 144.3;" xml:space="preserve">
<style type="text/css">
	.st0{fill:#00855A;}
	.st1{fill:#FFFFFF;}
	.st2{font-family:'Lato-Bold';}
	.st3{font-size:47.66px;}
	.st4{font-family:'Lato-Semibold';}
	.st5{font-size:25.48px;}
	.st6{letter-spacing:-1;}
</style>
<path class="st0" d="M412.1,144.3H20c-11,0-20-9-20-20V20C0,9,9,0,20,0h392.1c11,0,20,9,20,20v104.3
	C432.1,135.4,423.1,144.3,412.1,144.3z"/>
<g id="Camada_2_00000098907185944537170890000008641156104798696614_">
	<g id="OBJECTS">
		<path class="st1" d="M87.3,38.4c7-7,6.8-18.5,6.8-18.5s-11.5-0.2-18.5,6.8s-6.8,18.5-6.8,18.5S80.4,45.4,87.3,38.4z"/>
		<path class="st1" d="M99.9,76.7c0-9.2,4.7-17.8,12.4-22.8c-2.8-4.5-7.2-7.8-12.2-9.3C94.7,43,89,44,83.6,46.8
			c-6.9,3.7-15.2,3.7-22.1,0C56.2,44,50.5,43,45,44.6c-14.9,4.2-22.1,25.3-16,47.1s23.2,36.2,38.1,32c0.9-0.2,1.7-0.5,2.5-0.9
			c1.9-0.8,4-0.8,5.9,0c0.8,0.4,1.7,0.7,2.5,0.9c13,3.6,27.5-6.7,35.2-23.7C105,95.1,99.9,86.3,99.9,76.7z"/>
		<text transform="matrix(1.01 0 0 1 151.0801 103.2601)" class="st1 st2 st3">Apple Store</text>
		<text transform="matrix(1.01 0 0 1 156.0801 59.1898)" class="st1 st4 st5 st6">F</text>
		<text transform="matrix(1.01 0 0 1 168.8564 59.1898)" class="st1 st4 st5">aça seu d</text>
		<text transform="matrix(1.01 0 0 1 273.7246 59.1898)" class="st1 st4 st5">o</text>
		<text transform="matrix(1.01 0 0 1 288.2183 59.1898)" class="st1 st4 st5">wnload na</text>
	</g>
</g>
</svg>
