<?xml version="1.0" encoding="utf-8"?>
<!-- Generator: Adobe Illustrator 26.0.0, SVG Export Plug-In . SVG Version: 6.00 Build 0)  -->
<svg version="1.1" id="Camada_1" xmlns="http://www.w3.org/2000/svg" xmlns:xlink="http://www.w3.org/1999/xlink" x="0px" y="0px"
	 viewBox="0 0 432.1 144.3" style="enable-background:new 0 0 432.1 144.3;" xml:space="preserve">
<style type="text/css">
	.st0{fill:#00855A;}
	.st1{fill:#FFFFFF;}
	.st2{font-family:'Lato-Bold';}
	.st3{font-size:47.12px;}
	.st4{font-family:'Lato-Semibold';}
	.st5{font-size:25.48px;}
	.st6{letter-spacing:-1;}
</style>
<path class="st0" d="M412.1,144.3H20c-11,0-20-9-20-20V20C0,9,9,0,20,0h392.1c11,0,20,9,20,20v104.3
	C432.1,135.4,423.1,144.3,412.1,144.3z"/>
<text transform="matrix(1.01 0 0 1 150.71 97.89)" class="st1 st2 st3">Google Pl</text>
<text transform="matrix(1.01 0 0 1 354.0127 97.89)" class="st1 st2 st3">a</text>
<text transform="matrix(1.01 0 0 1 378.0713 97.89)" class="st1 st2 st3">y</text>
<text transform="matrix(1.01 0 0 1 155.71 54.0199)" class="st1 st4 st5 st6">F</text>
<text transform="matrix(1.01 0 0 1 168.4863 54.0199)" class="st1 st4 st5">aça seu d</text>
<text transform="matrix(1.01 0 0 1 273.355 54.0199)" class="st1 st4 st5">o</text>
<text transform="matrix(1.01 0 0 1 287.8481 54.0199)" class="st1 st4 st5">wnload na</text>
<path class="st1" d="M109.5,69.3L32.1,24.7c-1.6-0.9-3.6-0.4-4.5,1.2c-0.3,0.5-0.5,1.1-0.5,1.7v89.3c0,1.8,1.5,3.3,3.3,3.3
	c0.6,0,1.2-0.2,1.7-0.5L109.5,75c1.6-0.9,2.1-3,1.2-4.5C110.3,70,109.9,69.6,109.5,69.3z"/>
</svg>
