<svg xmlns="http://www.w3.org/2000/svg" viewBox="0 0 582.37 279.25"><defs><style>.cls-1{fill:#e28d03;}.cls-2{fill:#00855a;}.cls-3{fill:#ffec00;}</style></defs><g id="Camada_2" data-name="Camada 2"><g id="Camada_3" data-name="Camada 3"><path class="cls-1" d="M413.18,187.15c21.91-21.33,29.49-48.53,16.94-60.75s-40.49-4.83-62.4,16.5-29.5,48.52-16.94,60.74S391.27,208.48,413.18,187.15Z"/><path class="cls-2" d="M42.67,237.46c-14.32,0-25.65-7-34.9-19.88C-2.36,203.5-.89,198,2.71,198c3,0,7.75.31,11.62.31,47.12,0,84.7-18.4,84.7-37C99,153,94,148.11,78.15,138c-13.42-8.57-26.24-16.83-26.24-34,0-22.65,21.77-45.55,53.38-67.32C135.72,15.61,169.11,0,187.29,0c10.74,0,17.6,5.51,25.08,16.52,6.86,9.79,6.56,14.69,3.6,15.61a429.42,429.42,0,0,0-86.77,41C99,91.8,84.71,105,84.71,118.12c0,7,6.56,13.13,14,18,13.11,8.58,30.41,18.67,30.41,37C129.14,205.64,79.64,237.46,42.67,237.46Z"/><path class="cls-2" d="M153.88,223.69c-8.64-2.44-22.36-10.09-23.85-20.5-1.49-9.48,7.15-24.79,22.36-45.59,21.78-29.69,31.31-43.46,34.89-50.49,1.49-2.76,3-4.59,5.07-4.59s4.77,1.83,10.74,3.67c14.91,4.59,19.38,8,16.7,19.27,16.08-10.7,28.58-16.21,34.57-16.21,5.07,0,8.95,1.23,15.51,5.82,6,4.28,8.05,8.87,6,17.44A147.78,147.78,0,0,1,269,150.9c19.88-21.42,39.22-41.86,51.2-43.48,5-.67,9.63,3.29,12.59,6,4.86,4.17,8,8.18,7.72,13.37-.9,15.92-35.4,51.11-44.36,73.44,15.22-2.44,27.73-13.76,48.59-42.52l.9-1.22c2.09-2.75,2.7-3.06,3.6-2.15l.9.92a4.09,4.09,0,0,1,.59,5.82l-.9,1.53c-18.79,32.13-43.54,56-63.22,56a35.77,35.77,0,0,1-17-4.28c-8.94-5.5-9.84-10.4-8.35-19.88,1.8-8.57,18.11-39.73,22.6-49.83-9,6.43-30.95,36.06-43.2,54.72-10.73,16.22-13.72,20.81-18.19,20.81S215,217,208.13,214.27C197.09,210,196.5,203,199.79,195c5.66-12.86,16.09-28.77,27.12-45,6.57-9.49,10.44-15.91,12.23-21.42a331.06,331.06,0,0,0-37.87,33.66c-11,16.83-22.36,32.41-33.39,51.11C163.71,220.33,158,224.91,153.88,223.69Z"/><path class="cls-3" d="M340.83,209.36c-13.12-14.69-15.8-37.34,2.7-62.43,14.92-20.5,40.26-40.7,60.54-40.7,9.83,0,21.47,6.13,25.35,12.26,8,3.37,11.92,12.55,11.92,23.56a62.22,62.22,0,0,1-.58,7.35c19.68-1.53,33.4-11,46.22-24.17l1.19-1.23c2.38-2.44,3.28-2.14,4.18-.87l.58.87a3.91,3.91,0,0,1,.86,2.66,4,4,0,0,1-1.15,2.55l-1.19,1.53c-10.44,13.46-30.12,29.37-54,31.53a105.36,105.36,0,0,1-8.34,18.67c-14.32,25.4-36.09,42.23-59.05,42.23C357.25,223.1,348.89,217.88,340.83,209.36Zm28.64-8c16.59,9.19,39.65-22.34,51-40.4-12.52-3.05-17.6-11.62-17.6-19.89a151.74,151.74,0,0,0-24.46,30.58c-6.56,10.38-14.63,25.4-8.95,29.66Zm57.25-53.25a42.39,42.39,0,0,0,2.39-12.85c0-4.28-1.49-7.65-4.18-8.57A38.14,38.14,0,0,0,416,131c0,.6-.31,1.52-.31,2.75a13.75,13.75,0,0,0,2.85,9.12,14.42,14.42,0,0,0,8.19,5.22Z"/><path class="cls-2" d="M452.06,223.69a23.8,23.8,0,0,1-7.13-8.84,23,23,0,0,1-2.12-11c0-11.63,6.56-29.69,17-46.21C503.9,87.83,534.06,42.24,558.52,6.74a3.6,3.6,0,0,1,1-1.29A3.65,3.65,0,0,1,561,4.69a3.89,3.89,0,0,1,3.21.52c9.53,4.59,18.18,9.18,18.18,19,0,12.54-8,27.54-77.23,133.42-18.19,27.85-23.56,42.24-23.26,49.89,13.43-3.06,30.12-13.14,44.43-27.23,1.8-1.54,2.7-.62,3,1.52a13.49,13.49,0,0,1-1.19,9.49C509.32,216.06,488.14,232,472,232A31.31,31.31,0,0,1,452.06,223.69Z"/><path class="cls-3" d="M374.7,100.74a1.5,1.5,0,0,1-.89,1.68,1.58,1.58,0,0,1-1.87-.5c-5.87-8.06-15.4-22.71-10-26.28S372.39,90.38,374.7,100.74Z"/><path class="cls-3" d="M416.37,88.75c-.68,1.43-2.47,1.19-2.47-.33.06-9.43,1-28.19,7.85-27.94S420.66,79.57,416.37,88.75Z"/><path class="cls-3" d="M449.88,107c-1.64,1.22-3.47-.21-2.35-1.86,6.78-10,19.51-27.06,25.58-24.16S460.52,99,449.88,107Z"/><path class="cls-2" d="M132.81,271.62a6.59,6.59,0,0,1-2.39-6V244.72h14.72v2.63H133.63V256h11.12v2.63H133.63v6.8a4.27,4.27,0,0,0,1.14,3.59h11v2.62Zm5.56-28.39h-2.49l4.66-5.9h3.6Z"/><path class="cls-2" d="M170.35,272.24a6.57,6.57,0,0,1-2.57-.36,6.31,6.31,0,0,1-2.21-1.33v8.7h-2.93V251.5h2.7v3.28A7.36,7.36,0,0,1,168,252a7.64,7.64,0,0,1,3.73-1.1c4.7,0,7.67,4.3,7.67,10.25S176.38,272.24,170.35,272.24Zm.43-18.87a5.39,5.39,0,0,0-4.3,2.41,3.29,3.29,0,0,0-.71,1.12,3.14,3.14,0,0,0-.19,1.29v9c0,1.64,1.48,2.94,4.31,2.94,4.3,0,6.49-3.67,6.49-8.35s-1.89-8.39-5.6-8.39Z"/><path class="cls-2" d="M194.1,254.09a3.84,3.84,0,0,0-1.6-.38,4.38,4.38,0,0,0-2.2.65,4.24,4.24,0,0,0-1.56,1.64,3.26,3.26,0,0,0-.74,2.32v13.29h-2.91V254.82c0-.87-.31-1.45-1-1.45a3,3,0,0,0-.9.19l-.24-2a7.17,7.17,0,0,1,2.15-.35c1.8,0,2.7,1.07,2.59,3.59a6.74,6.74,0,0,1,2.19-2.61,7.07,7.07,0,0,1,3.21-1.25,5.5,5.5,0,0,1,1.84.34Z"/><path class="cls-2" d="M211.41,271.85c-2.11,0-2.55-1.48-2.62-3.12a7.43,7.43,0,0,1-2.75,2.56,7.71,7.71,0,0,1-3.67.95,5.76,5.76,0,0,1-2.22-.33,5.64,5.64,0,0,1-1.91-1.15A5.5,5.5,0,0,1,197,269a5.28,5.28,0,0,1-.46-2.14c0-5.41,5.55-6.4,10.09-6.4,1.8,0,2,0,2-.57v-2.21a3.9,3.9,0,0,0-.23-1.76,4,4,0,0,0-1-1.5,4.19,4.19,0,0,0-3.36-1.12,6.85,6.85,0,0,0-2.87.53,6.63,6.63,0,0,0-2.37,1.67l-1.3-2a9.81,9.81,0,0,1,7.09-2.51,6.47,6.47,0,0,1,5,1.8,6.23,6.23,0,0,1,1.47,2.25,6.13,6.13,0,0,1,.35,2.65V268.5c0,.77.24,1.26,1,1.26a2.74,2.74,0,0,0,.9-.15l.24,2A8,8,0,0,1,211.41,271.85Zm-2.82-9.45h-2.11c-3,0-7,.46-7,4.15a3.37,3.37,0,0,0,.28,1.4,3.43,3.43,0,0,0,.83,1.17,3.39,3.39,0,0,0,1.24.74,3.7,3.7,0,0,0,1.44.2,5.69,5.69,0,0,0,2.53-.62,5.49,5.49,0,0,0,2-1.67,3.17,3.17,0,0,0,.82-2.17Z"/><path class="cls-2" d="M235,272.27a5.05,5.05,0,0,1-2.14-.35,5.16,5.16,0,0,1-1.8-1.18,4.93,4.93,0,0,1-1.11-1.81,4.69,4.69,0,0,1-.24-2.1V254.1h-3.5v-2.21h3.5v-4.5l2.94-.88v5.42h5.63v2.21h-5.63v12.42c0,2.25,1.13,3.43,3.28,3.43a4.38,4.38,0,0,0,2.27-.57l.55,2.17A9.81,9.81,0,0,1,235,272.27Z"/><path class="cls-2" d="M250.17,272.35c-6.46,0-9.16-5.41-9.16-10.86s3-10.67,9.32-10.67,9.16,5.26,9.16,10.7S256.46,272.35,250.17,272.35Zm.16-19.27c-4.66,0-6.3,4.6-6.3,8.38s1.37,8.53,6.12,8.53,6.29-4.84,6.29-8.5-1.37-8.4-6.11-8.4Z"/><path class="cls-2" d="M280.22,271.93c-2.38,0-2.7-1.75-2.7-3.58a7.23,7.23,0,0,1-2.61,2.77,7.59,7.59,0,0,1-3.69,1.12c-4.81,0-7.71-4.62-7.71-10.52S266.6,251,272.56,251a6.34,6.34,0,0,1,2.55.35,6.19,6.19,0,0,1,2.18,1.33v-9.21h2.94V268.5c0,.76.23,1.26,1,1.26a4.7,4.7,0,0,0,.9-.15l.24,2A8.53,8.53,0,0,1,280.22,271.93ZM277.29,256c0-1.75-1.46-2.93-4.35-2.93-4.5,0-6.41,3.62-6.41,8.08,0,4.72,1.8,8.61,5.64,8.61a5.32,5.32,0,0,0,2.44-.68,5.18,5.18,0,0,0,1.82-1.72,3.12,3.12,0,0,0,.9-2.4Z"/><path class="cls-2" d="M295.11,272.35c-6.46,0-9.16-5.41-9.16-10.86s3-10.67,9.31-10.67,9.17,5.26,9.17,10.7S301.46,272.35,295.11,272.35Zm.16-19.27c-4.66,0-6.3,4.6-6.3,8.38s1.37,8.53,6.12,8.53,6.3-4.84,6.3-8.5-1.37-8.4-6.12-8.4Z"/><path class="cls-2" d="M345.83,271.62V258a3.95,3.95,0,0,0-1.13-3.34,4.16,4.16,0,0,0-1.54-1,4.37,4.37,0,0,0-1.83-.25,5.55,5.55,0,0,0-2.59.67,5.22,5.22,0,0,0-1.95,1.81,3,3,0,0,0-.64,1.1,3.36,3.36,0,0,0-.15,1.26v13.38h-2.93V258a3.93,3.93,0,0,0-.18-1.8,4.06,4.06,0,0,0-.95-1.54,4.25,4.25,0,0,0-1.54-1,4.37,4.37,0,0,0-1.83-.25,5.6,5.6,0,0,0-2.57.68,5.3,5.3,0,0,0-1.93,1.8,3.07,3.07,0,0,0-.78,2.36v13.38h-2.93V251.47h2.74v3.16a7.46,7.46,0,0,1,2.68-2.73,7.61,7.61,0,0,1,3.73-1,6,6,0,0,1,3.77,1,5.71,5.71,0,0,1,2.29,3.07,7.76,7.76,0,0,1,2.77-2.89,7.94,7.94,0,0,1,3.89-1.15,6.26,6.26,0,0,1,2.64.42,6.13,6.13,0,0,1,2.22,1.46,6.07,6.07,0,0,1,1.37,2.23,6,6,0,0,1,.27,2.59v14Z"/><path class="cls-2" d="M371.07,271.93c-2.38,0-2.7-1.67-2.7-3.4a7.6,7.6,0,0,1-2.73,2.67,8,8,0,0,1-3.73,1,6.28,6.28,0,0,1-2.65-.42,6.13,6.13,0,0,1-2.22-1.46,5.92,5.92,0,0,1-1.38-2.24,5.7,5.7,0,0,1-.28-2.59v-14h2.93v13.65a4.09,4.09,0,0,0,.19,1.8,4.17,4.17,0,0,0,1,1.55,4.4,4.4,0,0,0,1.55,1,4.62,4.62,0,0,0,1.84.26,5.53,5.53,0,0,0,2.58-.69,5.41,5.41,0,0,0,1.92-1.79,3.27,3.27,0,0,0,.65-1.13,3.21,3.21,0,0,0,.14-1.27V251.5h2.93v17c0,.76.2,1.26,1,1.26a5,5,0,0,0,.94-.15l.24,2A9.32,9.32,0,0,1,371.07,271.93Z"/><path class="cls-2" d="M391.86,271.62V258a4.14,4.14,0,0,0-1.22-3.39,4.33,4.33,0,0,0-3.48-1.19,5.89,5.89,0,0,0-2.7.66,5.59,5.59,0,0,0-2.07,1.82,2.83,2.83,0,0,0-.9,2.36v13.38h-2.93V251.47h2.7v3.24a7.92,7.92,0,0,1,2.86-2.8,8.23,8.23,0,0,1,3.91-1,6.33,6.33,0,0,1,2.69.38,6.26,6.26,0,0,1,2.27,1.45,6.05,6.05,0,0,1,1.74,4.87v14Z"/><path class="cls-2" d="M416.51,271.93c-2.39,0-2.75-1.75-2.75-3.58a7.28,7.28,0,0,1-2.6,2.77,7.52,7.52,0,0,1-3.69,1.12c-4.82,0-7.71-4.62-7.71-10.52s3.09-10.77,9-10.77a6.32,6.32,0,0,1,4.75,1.68v-9.21h2.93V268.5c0,.76.23,1.26,1,1.26a4.85,4.85,0,0,0,.94-.15l.24,2A8.61,8.61,0,0,1,416.51,271.93ZM413.6,256c0-1.75-1.46-2.93-4.35-2.93-4.5,0-6.43,3.62-6.43,8.08,0,4.72,1.85,8.61,5.65,8.61a5.48,5.48,0,0,0,2.44-.68,5.18,5.18,0,0,0,1.82-1.72,3.17,3.17,0,0,0,.7-1.11,3,3,0,0,0,.2-1.29Z"/><path class="cls-2" d="M431.4,272.35c-6.46,0-9.16-5.41-9.16-10.86s3-10.67,9.32-10.67,9.16,5.26,9.16,10.7S437.73,272.35,431.4,272.35Zm.15-19.27c-4.66,0-6.3,4.6-6.3,8.38s1.37,8.53,6.12,8.53,6.29-4.84,6.29-8.5-1.37-8.4-6.11-8.4Z"/><path class="cls-2" d="M447.84,271.85a1.94,1.94,0,0,1-.79-.11,1.86,1.86,0,0,1-.66-.4,1.91,1.91,0,0,1-.45-.64,1.73,1.73,0,0,1-.14-.75,1.88,1.88,0,0,1,.31-1.1,2,2,0,0,1,.88-.75,2,2,0,0,1,1.17-.14,2.09,2.09,0,0,1,1,.52,2,2,0,0,1,.57,1,2,2,0,0,1-.83,2A2,2,0,0,1,447.84,271.85Z"/><path class="cls-2" d="M458.8,271.85a1.87,1.87,0,0,1-.78-.11,1.9,1.9,0,0,1-.67-.4,1.88,1.88,0,0,1-.44-.64,1.6,1.6,0,0,1-.15-.75,2,2,0,0,1,.31-1.1,2,2,0,0,1,.89-.75,2,2,0,0,1,1.16-.14,2.09,2.09,0,0,1,1.05.52,1.93,1.93,0,0,1,.48,2.13,2,2,0,0,1-1.85,1.24Z"/><path class="cls-2" d="M469.73,271.85a1.89,1.89,0,0,1-2-1.9,2,2,0,0,1,.31-1.1,2,2,0,0,1,2.06-.89,2.06,2.06,0,0,1,1,.52,1.94,1.94,0,0,1-.25,3A2,2,0,0,1,469.73,271.85Z"/></g></g></svg>